<?xml version="1.0" encoding="UTF-8"?>
<svg width="16px" height="16px" viewBox="0 0 16 16" version="1.1" xmlns="http://www.w3.org/2000/svg" xmlns:xlink="http://www.w3.org/1999/xlink">
    <!-- Generator: Sketch 63.1 (92452) - https://sketch.com -->
    <title>icons/nav/功能切换</title>
    <desc>Created with Sketch.</desc>
    <g id="icons/nav/功能切换" stroke="none" stroke-width="1" fill="none" fill-rule="evenodd">
        <g id="设置" fill="#000000" fill-rule="nonzero" opacity="0">
            <rect id="Rectangle" x="0" y="0" width="16" height="16"></rect>
        </g>
        <path d="M1,9 L6.999,9 L7,15 L2,15 C1.44771525,15 1,14.5522847 1,14 L1,9 Z M15,9 L15,14 C15,14.5522847 14.5522847,15 14,15 L9,15 L8.999,9 L15,9 Z M14,1 C14.5522847,1 15,1.44771525 15,2 L15,7 L9,7 L9,1 L14,1 Z M7,7 L1,7 L1,2 C1,1.44771525 1.44771525,1 2,1 L7,1 L7,7 Z" id="Combined-Shape" fill="#707070"></path>
    </g>
</svg>