<?xml version="1.0" encoding="UTF-8"?>
<svg width="16px" height="16px" viewBox="0 0 16 16" version="1.1" xmlns="http://www.w3.org/2000/svg" xmlns:xlink="http://www.w3.org/1999/xlink">
    <!-- Generator: Sketch 63.1 (92452) - https://sketch.com -->
    <title>icons/nav/管理中心_n</title>
    <desc>Created with Sketch.</desc>
    <g id="icons/nav/管理中心_n" stroke="none" stroke-width="1" fill="none" fill-rule="evenodd">
        <g id="设置" fill-rule="nonzero">
            <rect id="Rectangle" fill="#000000" opacity="0" x="0" y="0" width="16" height="16"></rect>
            <path d="M7.96949786,5.1847682 C6.44501783,5.1847682 5.25167485,6.41030613 5.25167485,7.97306214 C5.25167485,9.53737935 6.44501783,10.7613561 7.96949786,10.7613561 C9.46742445,10.7613561 10.6873209,9.51083903 10.6873209,7.97306214 C10.6873209,6.43684644 9.46742445,5.1847682 7.96949786,5.1847682 L7.96949786,5.1847682 Z M7.96949786,9.57797041 C7.09323423,9.57797041 6.40596864,8.87387155 6.40596864,7.97306214 C6.40596864,7.07381393 7.09323423,6.36815387 7.96949786,6.36815387 C8.84576149,6.36815387 9.53302708,7.07381393 9.53302708,7.97306214 C9.53302708,8.87387155 8.84732345,9.57797041 7.96949786,9.57797041 L7.96949786,9.57797041 Z M14.8374678,6.61170026 C14.7624934,6.10118956 14.4204226,5.71713564 13.9362127,5.607852 L13.8549905,5.59536244 C13.492614,5.50012956 13.2411373,5.29249065 13.0208999,4.90687553 C12.8194062,4.56185147 12.7694232,4.15125724 12.8725131,3.84526305 C13.0693209,3.37534341 12.9334298,2.82268045 12.5554337,2.49170715 C11.9056553,1.86098444 11.1356055,1.38482003 10.3062009,1.0913154 C9.86728807,0.897727244 9.37839232,1.01637805 8.99883428,1.40511556 L8.95353723,1.45819618 C8.56304541,1.96870689 7.67740998,2.12950995 6.94016144,1.37389166 C6.74022964,1.16937514 6.30912668,0.857136179 5.63435682,1.0913154 C4.77527484,1.46444096 4.0567699,1.9046979 3.47415612,2.40896382 C3.0555489,2.71495801 2.88060857,3.26449858 3.04305316,3.75315256 C3.1508289,4.1918483 3.10553185,4.59463656 2.91184791,4.95058898 C2.74940332,5.24097122 2.42920003,5.48295641 2.04808002,5.60160722 C1.92624658,5.62190275 1.83565248,5.67186099 1.76692592,5.7265028 C1.50451542,5.88262229 1.30770755,6.12148509 1.16869246,6.45401959 L1.12183345,6.59764951 L1.12183345,6.6616585 C1.03904918,7.10816021 1,7.53748879 1,8.00584723 C1,8.37428921 1.02342951,8.90665664 1.13276722,9.37345389 C1.20930361,9.8824034 1.55137444,10.2633349 2.03402232,10.3726186 L2.11524461,10.3851081 C2.47762102,10.480341 2.72753578,10.6864187 2.94933513,11.0720338 C3.1508289,11.4170579 3.20081185,11.8276521 3.09772201,12.1352075 C2.90091414,12.6051272 3.03680529,13.1577901 3.41480137,13.4887634 C4.07082761,14.1272921 4.8533732,14.6034565 5.73900863,14.9063283 L5.82804076,14.9375522 L5.8311647,14.9375522 C5.88583355,14.9531642 5.95768404,14.9687761 6.04359224,14.9687761 L6.13574831,14.9687761 C6.46219947,14.9687761 6.79021259,14.8251462 7.06511882,14.5394475 C7.50715555,14.0039577 8.37560934,13.8728173 9.09255231,14.6065789 C9.33934314,14.8594925 9.63611691,15 9.92820479,15 C10.0297327,15 10.2156068,15 10.3671176,14.9219403 C11.2121419,14.5550595 11.921275,14.1226085 12.5320042,13.6027306 C12.9396776,13.3263992 13.1224278,12.7550019 12.9584212,12.2585419 C12.8506455,11.8198462 12.8959426,11.4170579 13.0896265,11.0626667 C13.2520711,10.7707232 13.5722744,10.5302992 13.9533944,10.4116484 C14.0767898,10.3929141 14.1658219,10.3413947 14.2361105,10.2851917 C14.498521,10.1290722 14.6937669,9.89177057 14.8327819,9.55923607 L14.879641,9.41560615 L14.879641,9.35159716 C14.9624252,8.90509545 15.0014744,8.47420568 14.9999575,7.95901139 C14.9671111,7.51407087 14.9343098,7.05507959 14.8374678,6.61170026 L14.8374678,6.61170026 Z M13.7378429,9.15800901 C13.6941078,9.23919114 13.6613065,9.25480308 13.6441249,9.26417025 L13.6331911,9.27041503 C12.9599832,9.47649275 12.399237,9.9120661 12.0837196,10.4756574 C11.7369629,11.1079413 11.6541786,11.8354581 11.8447386,12.580148 L11.8541104,12.6347899 L11.8166232,12.6675749 C11.3058599,13.1093931 10.7060645,13.4793963 9.9563202,13.8134919 C9.94382446,13.805686 9.92664282,13.7916352 9.90477528,13.7697785 C9.35340084,13.204626 8.7161182,12.9064378 8.05852999,12.9064378 C7.31971948,12.9064378 6.63557783,13.2233603 6.21384667,13.7385546 C6.17011159,13.7838292 6.13262438,13.7853904 6.13262438,13.7853904 L6.03422044,13.7541665 L6.01547683,13.7541665 C5.32508731,13.5059366 4.71748205,13.1265662 4.20515679,12.6301063 L4.16923155,12.5660973 C4.4004027,11.8947835 4.31293253,11.1095025 3.93962236,10.4694126 C3.54913055,9.78873171 3.01649972,9.37969867 2.31361446,9.2188956 L2.26831741,9.21265082 L2.27300331,9.1907941 L2.26050757,9.12054033 C2.19334298,8.84264765 2.15585576,8.44766537 2.15585576,8.00896962 C2.15585576,7.59993658 2.18865708,7.24398416 2.2636315,6.85524665 C2.30580462,6.77562572 2.3401679,6.75845258 2.35734954,6.74908541 L2.36672134,6.74284063 C3.03992923,6.53676291 3.60223743,6.10118956 3.91619285,5.53759823 C4.26294958,4.90531433 4.34573384,4.17779755 4.1379922,3.38627178 L4.18172728,3.34724191 C4.70967221,2.88981183 5.33133518,2.51044149 6.04203028,2.19976372 C6.08264142,2.18571297 6.0982611,2.18571297 6.12481454,2.21381447 C6.67618898,2.77896699 7.31347162,3.0771552 7.97105983,3.0771552 C8.73642378,3.0771552 9.39713592,2.77584461 9.83448675,2.22786523 C9.86416413,2.19976372 9.88759364,2.19039655 9.89227954,2.19820252 C10.6045366,2.45111608 11.2340094,2.83985359 11.7650783,3.35504788 L11.8010035,3.41905687 C11.5698324,4.09037064 11.6573025,4.87565163 12.0306127,5.5157415 C12.4211045,6.19642244 12.9521734,6.60545548 13.6566206,6.76625855 L13.6941078,6.77250333 C13.6956698,6.77718691 13.6972318,6.78499289 13.6987937,6.79592125 L13.7097275,6.85524665 C13.7909498,7.21588266 13.8190652,7.61867092 13.8471806,8.00896962 C13.8456186,8.41331908 13.8128173,8.77083269 13.7378429,9.15800901 Z" id="Shape" fill="#535866"></path>
        </g>
    </g>
</svg>