<?xml version="1.0" encoding="UTF-8"?>
<svg width="16px" height="16px" viewBox="0 0 16 16" version="1.1" xmlns="http://www.w3.org/2000/svg" xmlns:xlink="http://www.w3.org/1999/xlink">
    <!-- Generator: Sketch 63.1 (92452) - https://sketch.com -->
    <title>icons/nav/设置</title>
    <desc>Created with Sketch.</desc>
    <g id="icons/nav/设置" stroke="none" stroke-width="1" fill="none" fill-rule="evenodd">
        <g id="设置" fill-rule="nonzero">
            <rect id="Rectangle" fill="#000000" opacity="0" x="0" y="0" width="16" height="16"></rect>
            <path d="M13.765,8 C13.7665108,7.20523282 14.257533,6.49354883 15,6.21 C14.8303073,5.54404177 14.5659475,4.90587378 14.215,4.31499999 C13.4901714,4.63920424 12.640457,4.4824721 12.0789925,3.92100753 C11.5175279,3.35954295 11.3607958,2.50982863 11.685,1.785 C11.0953051,1.43170447 10.4567851,1.16719884 9.79,1 C9.50528475,1.74154993 8.79432393,2.23207318 8,2.23500001 C7.20523282,2.23348918 6.49354883,1.74246698 6.21,1 C5.54321489,1.16719884 4.90469492,1.43170447 4.31499999,1.785 C4.63920424,2.50982863 4.4824721,3.35954295 3.92100753,3.92100753 C3.35954295,4.4824721 2.50982863,4.63920424 1.785,4.31499999 C1.43170447,4.90469492 1.16719884,5.54321489 1,6.21 C1.74154993,6.49471525 2.23207318,7.20567607 2.23500001,8 C2.23348918,8.79476718 1.74246698,9.50645117 1,9.79 C1.16719884,10.4567851 1.43170447,11.0953051 1.785,11.685 C2.50982863,11.3607958 3.35954295,11.5175279 3.92100753,12.0789925 C4.4824721,12.640457 4.63920424,13.4901714 4.31499999,14.215 C4.90587378,14.5659475 5.54404177,14.8303073 6.21,15 C6.49254659,14.25682 7.20492201,13.7655329 8,13.7655329 C8.79507799,13.7655329 9.50745341,14.25682 9.79,15 C10.4559582,14.8303073 11.0941262,14.5659475 11.685,14.215 C11.3607958,13.4901714 11.5175279,12.640457 12.0789925,12.0789925 C12.640457,11.5175279 13.4901714,11.3607958 14.215,11.685 C14.5659475,11.0941262 14.8303073,10.4559582 15,9.79 C14.257533,9.50645117 13.7665108,8.79476718 13.765,8 Z M8,9.92 C6.93961328,9.92 6.08,9.06038672 6.08,8 C6.08,6.93961328 6.93961328,6.08 8,6.08 C9.06038672,6.08 9.92,6.93961328 9.92,8 C9.92,8.50921566 9.71771487,8.99757518 9.35764502,9.35764502 C8.99757518,9.71771487 8.50921566,9.92 8,9.92 Z" id="Shape" fill="#707070"></path>
        </g>
    </g>
</svg>