<?xml version="1.0" encoding="UTF-8"?>
<svg width="16px" height="16px" viewBox="0 0 16 16" version="1.1" xmlns="http://www.w3.org/2000/svg" xmlns:xlink="http://www.w3.org/1999/xlink">
    <!-- Generator: Sketch 63.1 (92452) - https://sketch.com -->
    <title>icons/nav/用户名</title>
    <desc>Created with Sketch.</desc>
    <g id="icons/nav/用户名" stroke="none" stroke-width="1" fill="none" fill-rule="evenodd">
        <g id="人" fill-rule="nonzero">
            <rect id="Rectangle" fill="#000000" opacity="0" x="0" y="0" width="16" height="16"></rect>
            <path d="M13.7635,11.0054063 C12.8757969,10.6085781 11.5585312,9.586375 9.60810937,9.235125 C10.1069219,8.69825 10.4844219,7.85860938 10.87275,6.86396875 C11.0977969,6.28751563 11.0592344,5.79610938 11.0592344,5.09645313 C11.0592344,4.5796875 11.156,3.75026563 11.0284531,3.2944375 C10.59825,1.75396875 9.51126562,1.32896875 8.23767187,1.32896875 C6.96303125,1.32896875 5.87471875,1.75596875 5.44532812,3.29907813 C5.3188125,3.7535 5.41582812,4.58101563 5.41582812,5.09653125 C5.41582812,5.79770313 5.37798437,6.29078125 5.603625,6.86814063 C5.9949375,7.86789063 6.36696875,8.70632813 6.86385937,9.24095313 C4.92907812,9.59860938 3.62170312,10.6131719 2.73964062,11.0087344 C0.914421875,11.8272656 0.90546875,12.723375 0.90546875,12.723375 L0.90546875,14.2455625 L15.6042812,14.2438125 L15.6042812,12.723375 C15.6042812,12.723375 15.5957344,11.8241875 13.7635156,11.0054063 L13.7635,11.0054063 Z" id="Path" fill="#707070"></path>
        </g>
    </g>
</svg>