<?xml version="1.0" encoding="UTF-8"?>
<svg width="16px" height="16px" viewBox="0 0 16 16" version="1.1" xmlns="http://www.w3.org/2000/svg" xmlns:xlink="http://www.w3.org/1999/xlink">
    <!-- Generator: Sketch 63.1 (92452) - https://sketch.com -->
    <title>icons/nav/资产管理_s</title>
    <desc>Created with Sketch.</desc>
    <g id="icons/nav/资产管理_s" stroke="none" stroke-width="1" fill="none" fill-rule="evenodd">
        <g id="管理流程" fill-rule="nonzero">
            <rect id="Rectangle" fill="#000000" opacity="0" x="0" y="0" width="16" height="16"></rect>
            <path d="M7.53333334,2.91311372 C7.01786757,2.91311372 6.60000001,3.32192866 6.60000001,3.82622744 L6.60000001,4.73934116 C6.60000001,5.24363994 7.01786757,5.65245488 7.53333334,5.65245488 L8.46666666,5.65245488 C8.98213243,5.65245488 9.39999999,5.24363994 9.39999999,4.73934116 L9.39999999,3.82622744 C9.39999999,3.32192866 8.98213243,2.91311372 8.46666666,2.91311372 L7.53333334,2.91311372 L7.53333334,2.91311372 Z M7.53333334,2 L8.46666666,2 C9.49759819,2 10.3333333,2.81762987 10.3333333,3.82622744 L10.3333333,4.73934116 C10.3333333,5.74793872 9.49759819,6.5655686 8.46666666,6.5655686 L7.53333334,6.5655686 C6.50240181,6.5655686 5.66666667,5.74793872 5.66666667,4.73934116 L5.66666667,3.82622744 C5.66666667,2.81762987 6.50240181,2 7.53333334,2 L7.53333334,2 Z M2.86666667,11.3475451 C2.3512009,11.3475451 1.93333333,11.7563601 1.93333333,12.2606589 L1.93333333,13.1737726 C1.93333333,13.6780713 2.3512009,14.0868863 2.86666667,14.0868863 L3.8,14.0868863 C4.31546577,14.0868863 4.73333334,13.6780713 4.73333334,13.1737726 L4.73333334,12.2606589 C4.73333334,11.7563601 4.31546577,11.3475451 3.8,11.3475451 L2.86666667,11.3475451 L2.86666667,11.3475451 Z M2.86666667,10.4344314 L3.8,10.4344314 C4.83093154,10.4344314 5.66666667,11.2520613 5.66666667,12.2606589 L5.66666667,13.1737726 C5.66666667,14.1823701 4.83093154,15 3.8,15 L2.86666667,15 C1.83573513,15 1,14.1823701 1,13.1737726 L1,12.2606589 C1,11.2520613 1.83573513,10.4344314 2.86666667,10.4344314 L2.86666667,10.4344314 Z M12.2,11.3475451 C11.6845342,11.3475451 11.2666667,11.7563601 11.2666667,12.2606589 L11.2666667,13.1737726 C11.2666667,13.6780713 11.6845342,14.0868863 12.2,14.0868863 L13.1333333,14.0868863 C13.6487991,14.0868863 14.0666667,13.6780713 14.0666667,13.1737726 L14.0666667,12.2606589 C14.0666667,11.7563601 13.6487991,11.3475451 13.1333333,11.3475451 L12.2,11.3475451 L12.2,11.3475451 Z M12.2,10.4344314 L13.1333333,10.4344314 C14.1642649,10.4344314 15,11.2520613 15,12.2606589 L15,13.1737726 C15,14.1823701 14.1642649,15 13.1333333,15 L12.2,15 C11.1690685,15 10.3333333,14.1823701 10.3333333,13.1737726 L10.3333333,12.2606589 C10.3333333,11.2520613 11.1690685,10.4344314 12.2,10.4344314 L12.2,10.4344314 Z M3.8,11.0389127 L2.86666667,11.0389127 L2.86666667,9.5213177 C2.86666667,8.76486953 3.49346802,8.15164713 4.26666666,8.15164713 L11.7333333,8.15164713 C12.506532,8.15164713 13.1333333,8.76486953 13.1333333,9.5213177 L13.1333333,11.0389127 L12.2,11.0389127 L12.2,9.5213177 C12.2,9.40023129 12.1508335,9.28410426 12.0633165,9.19848324 C11.9757995,9.11286222 11.857101,9.06476083 11.7333333,9.06476083 L4.26666666,9.06476083 C4.14289897,9.06476083 4.02420047,9.11286222 3.9366835,9.19848324 C3.84916652,9.28410426 3.8,9.40023129 3.8,9.5213177 L3.8,11.0389127 Z M8.46666666,8.60820398 L7.53333334,8.60820398 L7.53333334,6.17749526 L8.46666666,6.17749526 L8.46666666,8.60820398 Z" id="Shape" fill="#868686"></path>
        </g>
    </g>
</svg>