<?xml version="1.0" encoding="UTF-8"?>
<svg width="16px" height="16px" viewBox="0 0 16 16" version="1.1" xmlns="http://www.w3.org/2000/svg" xmlns:xlink="http://www.w3.org/1999/xlink">
    <!-- Generator: Sketch 63.1 (92452) - https://sketch.com -->
    <title>icons/nav/资产经营_s</title>
    <desc>Created with Sketch.</desc>
    <g id="icons/nav/资产经营_s" stroke="none" stroke-width="1" fill="none" fill-rule="evenodd">
        <rect id="Rectangle-Copy" stroke="#868686" x="2" y="2" width="12" height="9" rx="1"></rect>
        <line x1="8" y1="11" x2="8" y2="13" id="Line-Copy-2" stroke="#868686" stroke-linecap="square"></line>
        <path d="M12.4471174,4.06580956 C12.3111799,3.95955956 12.1143049,3.98455956 12.0080549,4.12205956 L9.52680489,7.32205956 L8.75024239,4.96737206 C8.71430489,4.85955956 8.62211739,4.77830956 8.51117989,4.75799706 C8.39867989,4.73768456 8.28461739,4.77830956 8.21274239,4.86737206 L5.93930489,7.64549706 L4.82992989,6.36580956 C4.76586739,6.29237206 4.67211739,6.25330956 4.57524239,6.25799706 C4.47836739,6.26424706 4.38930489,6.31424706 4.33461739,6.39549706 L3.05336739,8.30174706 C2.95649239,8.44549706 2.99555489,8.63924706 3.13774239,8.73612206 C3.19086739,8.77205956 3.25180489,8.78924706 3.31117989,8.78924706 C3.41117989,8.78924706 3.51117989,8.74080956 3.57055489,8.65174706 L4.62524239,7.08299706 L5.70961739,8.33455956 C5.77055489,8.40487206 5.85805489,8.44393456 5.95024239,8.44237206 C6.04242989,8.44080956 6.12992989,8.39862206 6.18774239,8.32830956 L8.33617989,5.70330956 L9.11742989,8.07518456 C9.15336739,8.18455956 9.24711739,8.26580956 9.36117989,8.28455956 C9.47524239,8.30487206 9.59086739,8.25955956 9.66117989,8.16737206 L12.5033674,4.50174706 C12.6080549,4.36737206 12.5830549,4.17049706 12.4471174,4.06580956 Z" id="Path-Copy" fill="#868686" fill-rule="nonzero"></path>
        <line x1="11" y1="14" x2="5" y2="14" id="Line-Copy-3" stroke="#868686" stroke-linecap="round" stroke-linejoin="bevel"></line>
    </g>
</svg>