<?xml version="1.0" encoding="UTF-8"?>
<svg width="16px" height="16px" viewBox="0 0 16 16" version="1.1" xmlns="http://www.w3.org/2000/svg" xmlns:xlink="http://www.w3.org/1999/xlink">
    <!-- Generator: Sketch 63.1 (92452) - https://sketch.com -->
    <title>icons/nav/个人中心_n</title>
    <desc>Created with Sketch.</desc>
    <g id="icons/nav/个人中心_n" stroke="none" stroke-width="1" fill="none" fill-rule="evenodd">
        <g id="icons/nav/用户名" transform="translate(0.000000, 1.000000)" fill-rule="nonzero" stroke="#535866">
            <g id="人">
                <path d="M8.23767188,0.82896875 C7.66254397,0.82896875 7.12602671,0.91787091 6.70095146,1.21777838 C6.34992526,1.4654413 6.08697753,1.85829887 5.92702673,2.43311714 C5.84759944,2.71840602 5.88068016,3.17164303 5.89899077,3.57067647 C5.90763175,3.75898473 5.91586577,3.93749499 5.91457339,4.36102197 C5.91095024,4.85928583 5.89710289,5.24546756 6.0693237,5.68613865 C6.4328839,6.61498513 6.7673716,7.40269106 7.2301013,7.90056092 C7.47056033,8.15928065 7.79160765,8.38918113 8.17082009,8.61075425 C7.78526239,8.61860026 7.37886582,8.6542222 6.9547476,8.73262307 C5.61173387,8.98088744 4.58802989,9.56623634 3.80500182,10.0089004 C3.48222945,10.1913712 3.19645754,10.3518496 2.9442354,10.4649591 C2.40319296,10.7075931 2.0385041,10.954516 1.79601933,11.1807652 C1.4876642,11.4684744 1.41258594,11.6967828 1.4055839,11.7388606 L1.40550697,12.745503 L15.1042813,12.743872 L15.1042813,11.723375 C15.1043038,11.7281273 14.9118391,11.0662249 13.5595044,10.4618992 C13.3064303,10.348768 13.0197478,10.188118 12.6959619,10.0054548 C11.9071115,9.56042619 10.8747922,8.9712843 9.51949034,8.727209 C9.09298054,8.65039918 8.68452563,8.6167747 8.29712188,8.61118317 C8.67716465,8.38776269 8.99980128,8.15527011 9.24180985,7.89479479 C9.70626672,7.39489696 10.046136,6.6063936 10.4069891,5.68212611 C10.5818976,5.23410143 10.5642293,4.84091689 10.5592457,4.09981535 C10.5592344,3.94263291 10.5672229,3.76230445 10.5758774,3.57204145 C10.5940998,3.17143076 10.6271664,2.71585526 10.5469478,2.4291692 C10.3866995,1.85535328 10.1239384,1.46352114 9.77333041,1.21659782 C9.34849342,0.91739708 8.81242968,0.82896875 8.23767188,0.82896875 Z" id="Path"></path>
            </g>
        </g>
    </g>
</svg>