<?xml version="1.0" encoding="UTF-8"?>
<svg width="12px" height="14px" viewBox="0 0 12 14" version="1.1" xmlns="http://www.w3.org/2000/svg" xmlns:xlink="http://www.w3.org/1999/xlink">
    <!-- Generator: Sketch 63.1 (92452) - https://sketch.com -->
    <title>icons/一级菜单/审批流程_s</title>
    <desc>Created with Sketch.</desc>
    <g id="基础平台" stroke="none" stroke-width="1" fill="none" fill-rule="evenodd">
        <g id="一级菜单x-copy" transform="translate(-26.000000, -534.000000)" fill="#FFFFFF">
            <g id="一级菜单" transform="translate(0.000000, 73.000000)">
                <g id="icons" transform="translate(25.000000, 13.000000)">
                    <g id="icons/一级菜单/工单管理_s" transform="translate(0.000000, 448.000000)">
                        <g id="Group">
                            <rect id="Rectangle" opacity="0" x="0" y="0" width="14" height="14"></rect>
                            <g id="icons/一级菜单/工单管理_s" transform="translate(1.000000, 0.000000)" fill-rule="nonzero">
                                <path d="M2.4,0 L2.4,0.162295082 C2.4,0.769808307 2.89248678,1.26229508 3.5,1.26229508 L3.5,1.26229508 L8.5,1.26229508 C9.10751322,1.26229508 9.6,0.769808307 9.6,0.162295082 L9.6,0.162295082 L9.6,0 L10.9,0 C11.5075132,-1.19075864e-15 12,0.492486775 12,1.1 L12,12.9 C12,13.5075132 11.5075132,14 10.9,14 L1.1,14 C0.492486775,14 7.09469975e-16,13.5075132 0,12.9 L0,1.1 C-7.43989126e-17,0.492486775 0.492486775,-3.32490841e-16 1.1,0 L2.4,0 Z M9.05,8.72131148 L2.95,8.72131148 C2.64624339,8.72131148 2.4,8.96755486 2.4,9.27131148 L2.4,9.27131148 L2.4,9.67554645 C2.4,9.97930306 2.64624339,10.2255464 2.95,10.2255464 L2.95,10.2255464 L9.05,10.2255464 C9.35375661,10.2255464 9.6,9.97930306 9.6,9.67554645 L9.6,9.67554645 L9.6,9.27131148 C9.6,8.96755486 9.35375661,8.72131148 9.05,8.72131148 L9.05,8.72131148 Z M9.05,5.04918033 L2.95,5.04918033 C2.64624339,5.04918033 2.4,5.29542372 2.4,5.59918033 L2.4,5.59918033 L2.4,5.97185792 C2.4,6.27561454 2.64624339,6.52185792 2.95,6.52185792 L2.95,6.52185792 L9.05,6.52185792 C9.35375661,6.52185792 9.6,6.27561454 9.6,5.97185792 L9.6,5.97185792 L9.6,5.59918033 C9.6,5.29542372 9.35375661,5.04918033 9.05,5.04918033 L9.05,5.04918033 Z"></path>
                            </g>
                        </g>
                    </g>
                </g>
            </g>
        </g>
    </g>
</svg>