<?xml version="1.0" encoding="UTF-8"?>
<svg width="14px" height="14px" viewBox="0 0 14 14" version="1.1" xmlns="http://www.w3.org/2000/svg" xmlns:xlink="http://www.w3.org/1999/xlink">
    <!-- Generator: Sketch 63.1 (92452) - https://sketch.com -->
    <title>icons/一级菜单/基础设置_s</title>
    <desc>Created with Sketch.</desc>
    <g id="基础平台" stroke="none" stroke-width="1" fill="none" fill-rule="evenodd">
        <g id="一级菜单x-copy" transform="translate(-25.000000, -198.000000)" fill="#FFFFFF">
            <g id="一级菜单" transform="translate(0.000000, 73.000000)">
                <g id="icons" transform="translate(25.000000, 13.000000)">
                    <g id="icons/一级菜单/设置中心_s" transform="translate(0.000000, 112.000000)">
                        <g id="Group">
                            <rect id="Rectangle" opacity="0" x="0" y="0" width="14" height="14"></rect>
                            <g id="icons/一级菜单/设置_s" fill-rule="nonzero" stroke="#FFFFFF" stroke-width="1.1">
                                <g id="Shape">
                                    <path d="M8.27223778,0.618983698 L8.89733263,2.15195406 C9.29013643,2.3086685 9.66279573,2.51334807 10.0068058,2.76097988 L10.0068058,2.76097988 L11.0461426,2.44349569 L13.1369533,4.93220071 L12.1212085,6.24036152 C12.16543,6.54696747 12.1824967,6.86333178 12.1713783,7.17340622 L12.1713783,7.17340622 L12.9642171,8.19086094 L11.8340427,11.3018303 L10.1926334,11.0761455 C9.85933468,11.3393705 9.49584785,11.560526 9.11067685,11.7346081 L9.11067685,11.7346081 L8.8667958,12.791962 L5.66621084,13.3583126 L5.0411205,11.8253392 C4.64837011,11.6686295 4.27565897,11.46392 3.93163625,11.2162976 L3.93163625,11.2162976 L2.89230226,11.5337858 L0.801496455,9.04511225 L1.81725994,7.73693135 C1.77303413,7.4303931 1.7559668,7.11395199 1.7670857,6.80389225 L1.7670857,6.80389225 L0.974246806,5.78643731 L2.10442249,2.67546434 L3.74583001,2.9011347 C4.07910763,2.63792982 4.44259887,2.41677559 4.827774,2.2426735 L4.827774,2.2426735 L5.07165245,1.18532158 L8.27223778,0.618983698 Z M6.96923193,3.68949851 C6.05965635,3.68949851 5.23473294,4.0592691 4.63729243,4.65670962 C4.03985191,5.25415013 3.67008132,6.07907354 3.67008132,6.98864913 C3.67008132,7.89823204 4.03985117,8.72315791 4.63728953,9.32059974 C5.23473041,9.9180441 6.05965495,10.2878157 6.96923193,10.2878157 C7.87880892,10.2878157 8.70373346,9.9180441 9.30117434,9.32059974 C9.89861269,8.72315791 10.2683825,7.89823204 10.2683825,6.98864913 C10.2683825,6.07906623 9.89861301,5.25414519 9.30117538,4.65670756 C8.70373469,4.05926687 7.87880982,3.68949851 6.96923193,3.68949851 Z"></path>
                                </g>
                            </g>
                        </g>
                    </g>
                </g>
            </g>
        </g>
    </g>
</svg>