<?xml version="1.0" encoding="UTF-8"?>
<svg width="14px" height="14px" viewBox="0 0 14 14" version="1.1" xmlns="http://www.w3.org/2000/svg" xmlns:xlink="http://www.w3.org/1999/xlink">
    <!-- Generator: Sketch 63.1 (92452) - https://sketch.com -->
    <title>icons/一级菜单/基础设置_n</title>
    <desc>Created with Sketch.</desc>
    <g id="基础平台" stroke="none" stroke-width="1" fill="none" fill-rule="evenodd">
        <g id="一级菜单s-copy" transform="translate(-25.000000, -198.000000)">
            <g id="一级菜单" transform="translate(0.000000, 73.000000)">
                <g id="icons" transform="translate(25.000000, 13.000000)">
                    <g id="icons/一级菜单/设置中心_n" transform="translate(0.000000, 112.000000)">
                        <g id="Group">
                            <rect id="Rectangle" fill="#FFFFFF" opacity="0" x="0" y="0" width="14" height="14"></rect>
                            <g id="设置" fill-rule="nonzero" stroke="#D3D6DC" stroke-width="1.1">
                                <path d="M8.3106201,0.618706327 L8.93888292,2.15516497 C9.33280134,2.31197084 9.70655408,2.51664195 10.0516418,2.76419373 L10.0516418,2.76419373 L11.0960564,2.44604485 L13.1972943,4.94021233 L12.1771315,6.25041273 C12.2215674,6.55757543 12.2387146,6.87452051 12.2275373,7.18515994 L12.2275373,7.18515994 L13.0238297,8.20420755 L11.8882448,11.3213851 L10.2386654,11.0952072 C9.90425315,11.3584391 9.53961802,11.5796515 9.15326585,11.753865 L9.15326585,11.753865 L8.90822638,12.8132896 L5.68936479,13.3812918 L5.06110648,11.84483 C4.66724154,11.6880289 4.29343702,11.4833279 3.94833654,11.2357854 L3.94833654,11.2357854 L2.90392473,11.5539384 L0.802691716,9.05980244 L1.82287339,7.74958191 C1.77843315,7.44248707 1.76128517,7.12546505 1.77246307,6.81484028 L1.77246307,6.81484028 L0.976170546,5.79579248 L2.11175672,2.67861127 L3.76133437,2.90477478 C4.09572548,2.64156296 4.46036498,2.42035183 4.84672126,2.2461184 L4.84672126,2.2461184 L5.09175814,1.18669573 L8.3106201,0.618706327 Z M7.0000001,3.69638426 C6.08725317,3.69638426 5.25952333,4.06653013 4.66002379,4.66436401 C4.05996904,5.26275157 3.68871238,6.0890193 3.68871238,7.00000002 C3.68871238,7.91098807 4.05996831,8.73725827 4.66002088,9.33564714 C5.25952079,9.93348488 6.08725177,10.3036318 7.0000001,10.3036318 C7.91274843,10.3036318 8.74047942,9.93348488 9.33997933,9.33564714 C9.9400319,8.73725827 10.3112878,7.91098807 10.3112878,7.00000002 C10.3112878,6.08901199 9.94003223,5.26274662 9.33998037,4.66436195 C8.74048066,4.06652789 7.91274934,3.69638426 7.0000001,3.69638426 Z" id="Shape"></path>
                            </g>
                        </g>
                    </g>
                </g>
            </g>
        </g>
    </g>
</svg>