<?xml version="1.0" encoding="UTF-8"?>
<svg width="14px" height="14px" viewBox="0 0 14 14" version="1.1" xmlns="http://www.w3.org/2000/svg" xmlns:xlink="http://www.w3.org/1999/xlink">
    <!-- Generator: Sketch 63.1 (92452) - https://sketch.com -->
    <title>icons/一级菜单/合同设置_s</title>
    <desc>Created with Sketch.</desc>
    <g id="基础平台" stroke="none" stroke-width="1" fill="none" fill-rule="evenodd">
        <g id="一级菜单x-copy" transform="translate(-25.000000, -254.000000)" fill="#FFFFFF">
            <g id="一级菜单" transform="translate(0.000000, 73.000000)">
                <g id="icons" transform="translate(25.000000, 13.000000)">
                    <g id="icons/一级菜单/合同管理_s" transform="translate(0.000000, 168.000000)">
                        <g>
                            <rect id="Rectangle" opacity="0" x="0" y="0" width="14" height="14"></rect>
                            <path d="M11,-3.01092484e-13 C12.1045695,-3.01092484e-13 13,0.889473649 13,1.986695 C13.1002741,4.17746049 13.1241719,6.02518871 13.0716933,7.52987965 C12.4677929,7.16317712 11.7585547,6.9534325 11,6.9534325 C8.790861,6.9534325 7,8.73237979 7,10.9268225 C7,12.1092296 7.51993306,13.1710076 8.34508192,13.8988679 C7.60560409,13.9391823 7.06262414,13.8838571 7.02665557,13.9017206 L7.027,13.906865 L2,13.906865 C0.945638205,13.906865 0.0818348781,13.0964148 0.00548573643,12.0684394 L2.69118061e-13,11.92017 L2.69118061e-13,1.986695 C2.69118061e-13,0.939347346 0.815877791,0.0812904716 1.85073766,0.00544924257 L2,-3.01092484e-13 L11,-3.01092484e-13 Z M4.5,8.44345375 L3.5,8.44345375 C3.22385763,8.44345375 3,8.66582216 3,8.9401275 C3,9.21443283 3.22385763,9.43680125 3.5,9.43680125 L4.5,9.43680125 C4.77614237,9.43680125 5,9.21443283 5,8.9401275 C5,8.66582216 4.77614237,8.44345375 4.5,8.44345375 Z M6,5.960085 L3.5,5.960085 C3.22385763,5.960085 3,6.18245341 3,6.45675875 C3,6.73106409 3.22385763,6.9534325 3.5,6.9534325 L6,6.9534325 C6.27614237,6.9534325 6.5,6.73106409 6.5,6.45675875 C6.5,6.18245341 6.27614237,5.960085 6,5.960085 Z M9.5,3.47671625 L3.5,3.47671625 C3.22385763,3.47671625 3,3.69908466 3,3.97339 C3,4.24769534 3.22385763,4.47006375 3.5,4.47006375 L9.5,4.47006375 C9.77614237,4.47006375 10,4.24769534 10,3.97339 C10,3.69908466 9.77614237,3.47671625 9.5,3.47671625 Z" id="Combined-Shape" fill-rule="nonzero"></path>
                            <g id="icons/一级菜单/合同订单_s" transform="translate(8.000000, 8.000000)">
                                <g id="Group-2">
                                    <g>
                                        <path d="M3,0 C4.65685425,0 6,1.34314575 6,3 C6,4.65685425 4.65685425,6 3,6 C1.34314575,6 0,4.65685425 0,3 C0,1.34314575 1.34314575,0 3,0 Z M3,1 L2.341,2.257 L1,2.528 L1.934,3.575 L1.764,5 L3,4.391 L4.236,5 L4.066,3.575 L5,2.528 L3.659,2.257 L3,1 Z" id="Combined-Shape"></path>
                                    </g>
                                </g>
                            </g>
                        </g>
                    </g>
                </g>
            </g>
        </g>
    </g>
</svg>