<?xml version="1.0" encoding="UTF-8"?>
<svg width="14px" height="14px" viewBox="0 0 14 14" version="1.1" xmlns="http://www.w3.org/2000/svg" xmlns:xlink="http://www.w3.org/1999/xlink">
    <!-- Generator: Sketch 63.1 (92452) - https://sketch.com -->
    <title>icons/一级菜单/合同管理_s</title>
    <desc>Created with Sketch.</desc>
    <g id="icons/一级菜单/合同管理_s" stroke="none" stroke-width="1" fill="none" fill-rule="evenodd">
        <g id="编组">
            <rect id="矩形" fill="#D8D8D8" opacity="0" x="0" y="0" width="14" height="14"></rect>
            <g id="编组备份-2" transform="translate(1.000000, 0.000000)" fill="#FFFFFF">
                <path d="M11,0 C11.5522847,-1.01453063e-16 12,0.44771525 12,1 L12,13 C12,13.5522847 11.5522847,14 11,14 L1,14 C0.44771525,14 6.76353751e-17,13.5522847 0,13 L0,1 C-6.76353751e-17,0.44771525 0.44771525,1.01453063e-16 1,0 L11,0 Z M4.45631668,8.61367702 C3.95400706,8.26784868 3.53407337,8.57732609 2.86536326,9.32807128 C2.76754069,9.4378944 2.66652407,9.55711241 2.56294493,9.68437181 C2.37866704,9.91077931 2.19469305,10.1520298 2.01908755,10.3931266 L2.01908755,10.3931266 L1.94497539,10.4955329 L1.78859091,10.7172733 C1.63244525,10.94503 1.69049753,11.2562444 1.91825429,11.4123901 C2.14601106,11.5685358 2.45722547,11.5104835 2.61337112,11.2827267 L2.61337112,11.2827267 L2.99543047,10.7548734 C3.1086911,10.6043769 3.22397737,10.4563565 3.33851916,10.3156282 C3.43319148,10.1993119 3.5247386,10.0912696 3.61209009,9.99320213 L3.61209009,9.99320213 L3.77183192,9.82031105 L3.894,9.698 L3.89981573,9.7757882 L3.91279221,10.1008398 C3.92253388,10.3246189 3.93517126,10.4300622 3.97335682,10.5561892 C4.0957376,10.9604131 4.50399613,11.1622124 4.9039149,10.9210322 C4.95760841,10.8886511 5.53589695,10.5153092 5.74958538,10.3847365 L5.74958538,10.3847365 L6.01754642,10.2255599 L6.17397299,10.1378675 C6.32447347,10.0557837 6.45681605,9.99075856 6.56758405,9.9448907 L6.56758405,9.9448907 L6.577,9.94 L6.60597683,10.2413881 C6.63752447,10.5555686 6.67057982,10.6922121 6.77719078,10.8625509 C7.04493303,11.2903389 7.5097496,11.2716539 7.92935537,10.957583 L7.92935537,10.957583 L8.04502056,10.8787764 C8.15807588,10.809643 8.26407095,10.7688089 8.36992997,10.7497944 C8.59466493,10.7094272 8.80215433,10.7444334 9.2934184,10.9166218 L9.2934184,10.9166218 L9.62463797,11.0368912 C9.88344173,11.1331992 10.1713167,11.0014704 10.2676246,10.7426666 C10.3639326,10.4838628 10.2322038,10.1959879 9.9734,10.0996799 C9.05311062,9.75721501 8.7093103,9.67283058 8.19313795,9.76554617 L8.19313795,9.76554617 L8.01494148,9.80692782 C7.89728535,9.8405737 7.78180773,9.88638257 7.66788141,9.94463497 L7.66788141,9.94463497 L7.587,9.99 L7.57113691,9.82375691 C7.53661249,9.49468785 7.49379437,9.33230014 7.36382904,9.15107441 C6.99017682,8.63003379 6.48769606,8.80203596 5.5193036,9.35852235 L5.5193036,9.35852235 L5.37662246,9.44194045 L5.2281778,9.5314287 L4.899,9.738 L4.88771059,9.56268622 C4.84948028,9.10205907 4.75110216,8.81662988 4.45631668,8.61367702 Z M9.5,6 L2.5,6 C2.22385763,6 2,6.22385763 2,6.5 C2,6.77614237 2.22385763,7 2.5,7 L2.5,7 L9.5,7 C9.77614237,7 10,6.77614237 10,6.5 C10,6.22385763 9.77614237,6 9.5,6 L9.5,6 Z M7.5,3 L2.5,3 C2.22385763,3 2,3.22385763 2,3.5 C2,3.77614237 2.22385763,4 2.5,4 L2.5,4 L7.5,4 C7.77614237,4 8,3.77614237 8,3.5 C8,3.22385763 7.77614237,3 7.5,3 L7.5,3 Z" id="形状结合"></path>
            </g>
        </g>
    </g>
</svg>