<?xml version="1.0" encoding="UTF-8"?>
<svg width="14px" height="14px" viewBox="0 0 14 14" version="1.1" xmlns="http://www.w3.org/2000/svg" xmlns:xlink="http://www.w3.org/1999/xlink">
    <!-- Generator: Sketch 63.1 (92452) - https://sketch.com -->
    <title>icons/一级菜单/企业信息_n</title>
    <desc>Created with Sketch.</desc>
    <g id="基础平台" stroke="none" stroke-width="1" fill="none" fill-rule="evenodd">
        <g id="一级菜单s-copy" transform="translate(-25.000000, -86.000000)" stroke="#D3D6DC">
            <g id="一级菜单" transform="translate(0.000000, 73.000000)">
                <g id="icons" transform="translate(25.000000, 13.000000)">
                    <g id="icons/一级菜单/项目楼宇_n">
                        <g id="icons/一级菜单/首页_n">
                            <path d="M10.4666667,7.98387148 C9.78983996,7.98387148 9.17698024,8.25682175 8.73339815,8.69845554 C8.29069422,9.13921501 8.01666667,9.74806061 8.01666667,10.4206948 C8.01666667,11.0933291 8.29069422,11.7021747 8.73339815,12.1429341 C9.17698024,12.5845679 9.78983996,12.8575182 10.4666667,12.8575182 C10.9731553,12.8575182 11.4438909,12.7049979 11.8345481,12.4426029 L13.1926598,12.8204878 L12.3954267,11.9233764 C12.7222227,11.509611 12.9166667,10.9877401 12.9166667,10.4206948 C12.9166667,9.74806061 12.6426391,9.13921501 12.1999352,8.69845554 C11.7563531,8.25682175 11.1434934,7.98387148 10.4666667,7.98387148 Z M5.43333333,7.98387148 L0.55,8.53387148 L1.1,13.388509 L5.98333333,12.838509 L5.43333333,7.98387148 Z M5.43333333,0.55 L0.55,1.1 L1.1,5.95463755 L5.98333333,5.40463755 L5.43333333,0.55 Z M12.9,0.55 L8.01666667,1.1 L8.56666667,5.95463755 L13.45,5.40463755 L12.9,0.55 Z" stroke-width="1.1" fill-rule="nonzero"></path>
                        </g>
                    </g>
                </g>
            </g>
        </g>
    </g>
</svg>