<?xml version="1.0" encoding="UTF-8"?>
<svg width="14px" height="14px" viewBox="0 0 14 14" version="1.1" xmlns="http://www.w3.org/2000/svg" xmlns:xlink="http://www.w3.org/1999/xlink">
    <!-- Generator: Sketch 63.1 (92452) - https://sketch.com -->
    <title>icons/一级菜单/财务设置_s</title>
    <desc>Created with Sketch.</desc>
    <g id="基础平台" stroke="none" stroke-width="1" fill="none" fill-rule="evenodd">
        <g id="一级菜单x-copy" transform="translate(-25.000000, -366.000000)" fill="#FFFFFF">
            <g id="一级菜单" transform="translate(0.000000, 73.000000)">
                <g id="icons" transform="translate(25.000000, 13.000000)">
                    <g id="icons/一级菜单/收支管理_s" transform="translate(0.000000, 280.000000)">
                        <g id="Group-2">
                            <g id="Group">
                                <rect id="Rectangle" opacity="0" x="0" y="0" width="14" height="14"></rect>
                                <g id="icons/一级菜单/收支管理_s" fill-rule="nonzero">
                                    <path d="M14,12.1129595 C14,12.308311 13.9666242,12.4907 13.8997926,12.6603187 C13.832961,12.8299213 13.737897,12.9789506 13.6145845,13.1074545 C13.491224,13.2359904 13.347258,13.3361978 13.1827987,13.4080926 C13.0184035,13.4800676 12.8384981,13.5160231 12.6431465,13.5160231 L1.44932177,13.5160231 C1.25405037,13.5160231 1.06900159,13.4800676 0.894239529,13.4080926 C0.719541561,13.3361978 0.565368962,13.2359904 0.431721732,13.1074545 C0.298058479,12.9789346 0.192691714,12.8299053 0.115653484,12.6603187 C0.0385191154,12.4907 0,12.308295 0,12.1129595 L0,4.41908664 C0,4.02854383 0.136146807,3.6970455 0.40855258,3.42463973 C0.680958354,3.15224998 1.01245668,3.01600703 1.40307961,3.01600703 L12.5969204,3.01600703 C12.9875433,3.01600703 13.3190416,3.15224998 13.5914474,3.42463973 C13.8638532,3.6970455 14,4.02854383 14,4.41908664 L14,6.5160551 L10.500016,6.5160551 C10.1093931,6.5160551 9.77789477,6.64965426 9.505489,6.91690065 C9.23308322,7.18416307 9.09693642,7.5130817 9.09693642,7.90370463 C9.10723916,8.17095102 9.16376804,8.40740135 9.26655512,8.6129755 C9.34875273,8.78773755 9.48497965,8.94705351 9.6751077,9.09092337 C9.86529983,9.23480925 10.1402853,9.30678424 10.500016,9.30678424 L14,9.30678424 L14,12.1129595 L14,12.1129595 Z M11.9030956,2.30675219 L4.90306358,2.30675219 C5.45814583,2.01899645 5.98236791,1.74144732 6.47574587,1.47420093 C6.9074676,1.24803732 7.33411006,1.02188974 7.75554508,0.795742151 C8.17696407,0.569658658 8.50589873,0.394896598 8.74233303,0.271520064 C9.10207978,0.0762486586 9.42329138,-0.0137360967 9.7059999,0.00169398155 C9.98861228,0.0171240598 10.2276263,0.0659459169 10.4228977,0.14814353 C10.6490613,0.261217322 10.8443968,0.410246562 11.0088721,0.595311363 L11.9030956,2.30675219 Z M9.80620728,7.90370463 C9.80620728,7.70843322 9.87302289,7.54397391 10.006622,7.41029463 C10.1403013,7.27669547 10.3047606,7.20987987 10.500032,7.20987987 C10.6953035,7.20987987 10.8597628,7.27669547 10.993442,7.41029463 C11.1270412,7.54395788 11.1938568,7.70843322 11.1938568,7.90370463 C11.1938568,8.09897604 11.1270412,8.26601504 10.993442,8.40482166 C10.8597628,8.54354815 10.6953035,8.6129755 10.500032,8.6129755 C10.3047606,8.6129755 10.1403013,8.54356418 10.006622,8.40482166 C9.87302289,8.26601504 9.80620728,8.09897604 9.80620728,7.90370463 L9.80620728,7.90370463 Z"></path>
                                </g>
                            </g>
                        </g>
                    </g>
                </g>
            </g>
        </g>
    </g>
</svg>