<?xml version="1.0" encoding="UTF-8"?>
<svg width="14px" height="14px" viewBox="0 0 14 14" version="1.1" xmlns="http://www.w3.org/2000/svg" xmlns:xlink="http://www.w3.org/1999/xlink">
    <!-- Generator: Sketch 52.6 (67491) - http://www.bohemiancoding.com/sketch -->
    <title>icons/一级菜单/资产管理_s</title>
    <desc>Created with Sketch.</desc>
    <g id="0.1" stroke="none" stroke-width="1" fill="none" fill-rule="evenodd">
        <g id="一级菜单_n" transform="translate(-225.000000, -136.000000)" fill="#FFFFFF" fill-rule="nonzero">
            <g id="s" transform="translate(200.000000, 0.000000)">
                <g id="菜单" transform="translate(0.000000, 80.000000)">
                    <path d="M38.5511918,62.0612757 L33.2432111,56.5322329 C32.9133219,56.1889497 32.4724873,56 31.9999338,56 C31.5273804,56 31.0865457,56.1889497 30.7567267,56.5322329 L25.4487461,62.0612757 C24.901036,62.6319867 24.9715612,63.12525 25.0620859,63.3313322 C25.1265761,63.4775207 25.3444671,63.8793636 25.9721057,63.8793636 L26.7501276,63.8793636 L26.7501276,67.2500377 C26.7501276,68.2157103 27.4430984,69.125 28.4279239,69.125 L29.3208211,69.125 L29.6880185,69.125 C30.2399974,69.125 30.6874647,68.6775327 30.6874647,68.1255537 L30.6874647,65.5063952 C30.6874647,65.0237344 30.6144133,64.7548796 31.1070366,64.7548796 L31.9999338,64.7548796 L32.8928311,64.7548796 C33.3853842,64.7548796 33.3124029,65.0237344 33.3124029,65.5063952 L33.3124029,68.1255537 L33.3124029,68.1255537 C33.3124029,68.6775327 33.7598703,69.125 34.3118492,69.125 L34.6791167,69.125 L35.5720841,69.125 C36.5568394,69.125 37.24974,68.2157103 37.24974,67.2500377 L37.24974,63.8793636 L38.0278322,63.8793636 C38.6552602,63.8793636 38.8732916,63.4775207 38.9378519,63.3313322 C39.028517,63.1253202 39.0989018,62.6319867 38.5511918,62.0612757 Z" id="icons/一级菜单/资产管理_s"></path>
                </g>
            </g>
        </g>
    </g>
</svg>