<?xml version="1.0" encoding="UTF-8"?>
<svg width="14px" height="14px" viewBox="0 0 14 14" version="1.1" xmlns="http://www.w3.org/2000/svg" xmlns:xlink="http://www.w3.org/1999/xlink">
    <!-- Generator: Sketch 63.1 (92452) - https://sketch.com -->
    <title>icons/一级菜单/收支管理_s</title>
    <desc>Created with Sketch.</desc>
    <g id="icons/一级菜单/收支管理_s" stroke="none" stroke-width="1" fill="none" fill-rule="evenodd">
        <g id="编组-2" transform="translate(0.000000, -0.000000)">
            <rect id="矩形" fill="#D8D8D8" opacity="0" x="0" y="1.13686838e-13" width="14" height="14"></rect>
            <g id="编组" fill="#FFFFFF">
                <path d="M13,3 C13.5522847,3 14,3.44771525 14,4 L14,6 L10,6 C8.8954305,6 8,6.8954305 8,8 C8,9.1045695 8.8954305,10 10,10 L10,10 L14,10 L14,13 C14,13.5522847 13.5522847,14 13,14 L1,14 C0.44771525,14 6.76353751e-17,13.5522847 0,13 L0,4 C-6.76353751e-17,3.44771525 0.44771525,3 1,3 L13,3 Z" id="形状结合"></path>
                <path d="M10.6243557,0.500166975 L12.433,3.634 L11.279,3.634 L9.75833025,1.00016698 L5.196,3.634 L3.197,3.634 L9.25833025,0.134141571 C9.73662287,-0.142000803 10.3482133,0.0218743518 10.6243557,0.500166975 Z" id="形状结合备份-2" fill-rule="nonzero"></path>
                <circle id="椭圆形" cx="10" cy="8" r="1"></circle>
            </g>
        </g>
    </g>
</svg>