<?xml version="1.0" encoding="UTF-8"?>
<svg width="14px" height="12px" viewBox="0 0 14 12" version="1.1" xmlns="http://www.w3.org/2000/svg" xmlns:xlink="http://www.w3.org/1999/xlink">
    <!-- Generator: Sketch 63.1 (92452) - https://sketch.com -->
    <title>icons/一级菜单/资产评估_s</title>
    <desc>Created with Sketch.</desc>
    <g id="基础平台" stroke="none" stroke-width="1" fill="none" fill-rule="evenodd">
        <g id="一级菜单x-copy" transform="translate(-25.000000, -591.000000)" fill="#FFFFFF" fill-rule="nonzero">
            <g id="一级菜单" transform="translate(0.000000, 73.000000)">
                <g id="icons" transform="translate(25.000000, 13.000000)">
                    <g id="icons/一级菜单/其他设置_s" transform="translate(0.000000, 504.000000)">
                        <path d="M10.1358156,1 C10.3960801,1 10.6370107,1.1361661 10.7663993,1.35490101 L13.9029585,6.64509899 C14.0323472,6.8638339 14.0323472,7.1361661 13.9029585,7.35490101 L10.7663993,12.645099 C10.6370107,12.8638339 10.3945929,13 10.1358156,13 L3.86418442,13 C3.6039199,13 3.36298932,12.8638339 3.23360068,12.645099 L0.097041483,7.35490101 C-0.032347161,7.1361661 -0.032347161,6.8638339 0.097041483,6.64509899 L3.23360068,1.35490101 C3.36298932,1.1361661 3.60540713,1 3.86418442,1 L10.1358156,1 Z M7,4 C5.34612839,4 4,5.34612839 4,7 C4,8.65387161 5.34612839,10 7,10 C8.65387161,10 10,8.65585705 10,7 C10,5.34612839 8.65387161,4 7,4 Z M7,5.35407015 C7.90933157,5.35407015 8.64592985,6.09265387 8.64592985,7 C8.64592985,7.90734613 7.90734613,8.64592985 7,8.64592985 C6.09265387,8.64592985 5.35407015,7.90734613 5.35407015,7 C5.35407015,6.09265387 6.09265387,5.35407015 7,5.35407015 Z" id="Combined-Shape"></path>
                    </g>
                </g>
            </g>
        </g>
    </g>
</svg>