<?xml version="1.0" encoding="UTF-8"?>
<svg width="14px" height="14px" viewBox="0 0 14 14" version="1.1" xmlns="http://www.w3.org/2000/svg" xmlns:xlink="http://www.w3.org/1999/xlink">
    <!-- Generator: Sketch 63.1 (92452) - https://sketch.com -->
    <title>icons/一级菜单/房源管理_s</title>
    <desc>Created with Sketch.</desc>
    <g id="icons/一级菜单/房源管理_s" stroke="none" stroke-width="1" fill="none" fill-rule="evenodd">
        <g id="Group-Copy-2" fill="#FFFFFF">
            <rect id="Rectangle" opacity="0" x="0" y="0" width="14" height="14"></rect>
            <path d="M8.828125,1 C9.14323438,1 9.43809375,1.12075535 9.65839062,1.33999667 C9.87867188,1.55925354 10,1.85272091 10,2.16634268 L10,2.16634268 L10,3.97028603 L11.828125,3.97028603 C12.1432344,3.97028603 12.4381094,4.09102583 12.6583906,4.3102827 C12.8786719,4.52953957 13,4.82300694 13,5.13662871 L13,5.13662871 L13,12.9277978 L13.5,12.9277978 C13.7761406,12.9277978 14,13.1506004 14,13.4254374 C14,13.7002744 13.7761406,13.9230769 13.5,13.9230769 L13.5,13.9230769 L0.5,13.9230769 C0.223859375,13.9230769 0,13.7002744 0,13.4254374 C0,13.1506004 0.223859375,12.9277978 0.5,12.9277978 L0.5,12.9277978 L1,12.9277978 L1,2.16634268 C1,1.52322133 1.53270313,1 2.1875,1 L2.1875,1 Z M6.5234375,8.44904193 L4.4921875,8.44904193 C4.22079688,8.44904193 4,8.66879645 4,8.93890586 L4,8.93890586 L4,12.9277978 L7.015625,12.9277978 L7.015625,8.93890586 C7.015625,8.66879645 6.79482813,8.44904193 6.5234375,8.44904193 L6.5234375,8.44904193 Z M7.484375,5.46320467 L3.484375,5.46320467 C3.20823438,5.46320467 2.984375,5.68600722 2.984375,5.96084421 C2.984375,6.2356812 3.20823438,6.45848375 3.484375,6.45848375 L7.484375,6.45848375 C7.76051563,6.45848375 7.984375,6.2356812 7.984375,5.96084421 C7.984375,5.68600722 7.76051563,5.46320467 7.484375,5.46320467 Z M7.484375,3.48819772 L3.484375,3.48819772 C3.20823438,3.48819772 2.984375,3.71100028 2.984375,3.98583727 C2.984375,4.26067426 3.20823438,4.48347681 3.484375,4.48347681 L7.484375,4.48347681 C7.76051563,4.48347681 7.984375,4.26067426 7.984375,3.98583727 C7.984375,3.71100028 7.76051563,3.48819772 7.484375,3.48819772 Z" id="Combined-Shape-Copy-2" fill-rule="nonzero"></path>
        </g>
    </g>
</svg>