<?xml version="1.0" encoding="UTF-8"?>
<svg width="14px" height="14px" viewBox="0 0 14 14" version="1.1" xmlns="http://www.w3.org/2000/svg" xmlns:xlink="http://www.w3.org/1999/xlink">
    <!-- Generator: Sketch 63.1 (92452) - https://sketch.com -->
    <title>icons/一级菜单/配套设施_s</title>
    <desc>Created with Sketch.</desc>
    <g id="icons/一级菜单/配套设施_s" stroke="none" stroke-width="1" fill="none" fill-rule="evenodd">
        <g id="Group" fill="#FFFFFF">
            <rect id="Rectangle" opacity="0" x="0" y="0" width="14" height="14"></rect>
            <g id="icons/一级菜单/配套设施_s" transform="translate(0.000000, 1.000000)">
                <g id="Group-2">
                    <g>
                        <path d="M3.1976499,3.86248366 C2.98985449,4.52009146 2.36928296,4.99719558 1.6359082,4.99719558 C0.732421143,4.99719558 1.50990331e-14,4.2728078 1.50990331e-14,3.37924917 C1.50990331e-14,2.48569054 0.732421143,1.76131798 1.6359082,1.76131798 C2.3327688,1.76131798 2.92739282,2.19201078 3.16348901,2.79893273 L4.58435742,2.79893273 L5.80164478,0.82852802 L5.95936011,0.572893066 L8.22754468,0.572893066 C8.41708301,0.231539401 8.78422412,-4.88498131e-15 9.20590576,-4.88498131e-15 C9.82180151,-4.88498131e-15 10.3211719,0.49376108 10.3211719,1.10301044 C10.3211719,1.7122598 9.82180151,2.20602088 9.20590576,2.20602088 C8.78563916,2.20602088 8.41966699,1.97607873 8.22940576,1.63656569 L6.55933667,1.63656569 L5.84117358,2.79893273 L11.3044548,2.79893273 L11.3044548,1.97236704 L12.5364771,2.67580811 L13.7685146,3.37924917 L12.5367231,4.08281194 L11.3044548,4.786253 L11.3044548,3.86248366 L7.23397192,3.86248366 L7.87584595,5.016758 L8.49457178,5.016758 L8.49457178,4.60410645 L10.309021,4.60410645 L10.309021,6.48009127 L8.4945564,6.48009127 L8.4945564,6.08017203 L7.24192383,6.08017203 L7.08817676,5.80397067 L6.008948,3.86248366 L3.1976499,3.86248366 Z" id="Shape" fill-rule="nonzero"></path>
                        <rect id="矩形" x="2.5" y="8" width="10" height="3" rx="1"></rect>
                    </g>
                </g>
            </g>
        </g>
    </g>
</svg>