<?xml version="1.0" encoding="UTF-8"?>
<svg width="14px" height="14px" viewBox="0 0 14 14" version="1.1" xmlns="http://www.w3.org/2000/svg" xmlns:xlink="http://www.w3.org/1999/xlink">
    <!-- Generator: Sketch 63.1 (92452) - https://sketch.com -->
    <title>icons/一级菜单/通行管理_n </title>
    <desc>Created with Sketch.</desc>
    <g id="icons/一级菜单/通行管理_n-" stroke="none" stroke-width="1" fill="none" fill-rule="evenodd">
        <g transform="translate(0.000000, 1.000000)" fill="#D3D6DC">
            <g>
                <path d="M11.5263297,-4.2074099e-15 C11.8406061,-0.000437463968 12.125394,0.173624348 12.2706994,0.446009038 L12.3184358,0.552613398 L13.9386789,4.98858367 C13.9626035,5.05563195 13.9778834,5.12530535 13.984351,5.19088603 L13.987422,5.28534777 L13.987422,10.0166889 C13.987422,10.4461043 13.6660898,10.8004684 13.2507617,10.8524451 L13.145103,10.8590079 L13.006,10.8588061 L12.9741903,10.9815971 C12.8176025,11.4711172 12.4021479,11.8429796 11.89083,11.9392358 L11.7610977,11.9574666 L11.6279371,11.9636654 C11.0442974,11.9636654 10.54128,11.6093159 10.326027,11.0942623 L10.2815558,10.9726391 L10.2508,10.8588061 L3.73426662,10.8588061 L3.70215147,10.9815971 C3.54556369,11.4711172 3.13010905,11.8429796 2.6187912,11.9392358 L2.48905892,11.9574666 L2.35589832,11.9636654 C1.77225857,11.9636654 1.26924115,11.6093159 1.05399002,11.0938036 L1.00951924,10.9720662 L0.979066621,10.8588061 L0.842488966,10.8590079 C0.448858247,10.8590079 0.118291351,10.5889996 0.0258951632,10.2240899 L0.00673282224,10.1223477 L0.00016996138,10.0166889 L0.000381148266,5.29938569 C-0.00176255642,5.22815413 0.00514581483,5.15708454 0.0208685534,5.08776922 L0.0510337231,4.98531098 L1.67042258,0.551720144 C1.77884777,0.256738998 2.04076327,0.049852803 2.34594528,0.00786614696 L2.46220137,-4.2074099e-15 L11.5263297,-4.2074099e-15 Z M11.4632,0.932806114 L2.52373329,0.932806114 L0.933333288,5.28960611 L0.933333288,9.92547278 L1.99593361,9.92567462 L1.88639534,10.4824284 C1.87990704,10.5154067 1.87655519,10.5489252 1.87615918,10.5654708 C1.88432211,10.8245413 2.09669924,11.0303321 2.35589832,11.0303321 C2.6150974,11.0303321 2.82747453,10.8245413 2.83540791,10.5815095 L2.83287805,10.5344844 L2.82558515,10.4879594 L2.70787788,9.92567462 L11.2759576,9.92567462 L11.1582503,10.4879594 C11.1518092,10.5187286 11.1485179,10.5500736 11.148198,10.5654708 C11.1563609,10.8245413 11.368738,11.0303321 11.6279371,11.0303321 C11.8871362,11.0303321 12.0995133,10.8245413 12.1074508,10.5825353 L12.1048146,10.5322449 L12.0974401,10.4824284 L11.9879018,9.92567462 L13.0536,9.92547278 L13.0536,5.28773945 L11.4632,0.932806114 Z M4.03136414,6.34985148 C4.55965436,6.56852274 4.9041485,7.08395567 4.9041485,7.65571401 C4.9041485,8.4357164 4.27224246,9.06825028 3.49223947,9.0690255 C2.92048163,9.06959132 2.40470747,8.72560912 2.1855121,8.19753654 C1.96631664,7.66946373 2.08688716,7.06134384 2.49098063,6.65684908 C2.8950741,6.25235432 3.50307403,6.13118027 4.03136414,6.34985148 Z M10.6855193,6.24240345 C11.4660692,6.24240345 12.0988299,6.87516414 12.0988299,7.65571401 C12.0988299,8.43626387 11.4660692,9.06902456 10.6855193,9.06902456 C9.90496946,9.06902456 9.27220877,8.43626387 9.27220877,7.65571401 C9.27220877,6.87516414 9.90496946,6.24240345 10.6855193,6.24240345 Z M3.15127441,7.3164878 C3.01403942,7.45385907 2.97309222,7.66038388 3.04753363,7.83972375 C3.12197505,8.01906365 3.29713843,8.13588432 3.49131369,8.13569216 C3.75621204,8.13542889 3.97081516,7.92061254 3.97081516,7.65571401 C3.97081516,7.46153828 3.85382086,7.28649113 3.67440712,7.21222773 C3.49499346,7.13796437 3.2885094,7.17911653 3.15127441,7.3164878 Z M10.6855193,7.17573679 C10.4204352,7.17573679 10.2055421,7.39062991 10.2055421,7.65571401 C10.2055421,7.9207981 10.4204352,8.13569122 10.6855193,8.13569122 C10.9506034,8.13569122 11.1654965,7.9207981 11.1654965,7.65571401 C11.1654965,7.39062991 10.9506034,7.17573679 10.6855193,7.17573679 Z" id="Shape-Copy" fill-rule="nonzero"></path>
                <path d="M10.876871,1.63175919 L3.14201698,1.63175919 L1.65605104,5.36509252 L12.3659587,5.36509252 L10.876871,1.63175919 Z M10.2433333,2.56427278 L10.9881333,4.43093945 L3.03239995,4.43093945 L3.77533329,2.56427278 L10.2433333,2.56427278 Z" id="Path" fill-rule="nonzero"></path>
            </g>
        </g>
    </g>
</svg>