<?xml version="1.0" encoding="UTF-8"?>
<svg width="14px" height="14px" viewBox="0 0 14 14" version="1.1" xmlns="http://www.w3.org/2000/svg" xmlns:xlink="http://www.w3.org/1999/xlink">
    <!-- Generator: Sketch 63.1 (92452) - https://sketch.com -->
    <title>icons/一级菜单/用户管理_s</title>
    <desc>Created with Sketch.</desc>
    <g id="icons/一级菜单/用户管理_s" stroke="none" stroke-width="1" fill="none" fill-rule="evenodd">
        <g id="Group" fill="#FFFFFF" opacity="0">
            <rect id="Rectangle" x="0" y="0" width="14" height="14"></rect>
        </g>
        <g id="编组-2">
            <rect id="矩形" fill="#D8D8D8" opacity="0" x="0" y="0" width="14" height="14"></rect>
            <g id="编组" transform="translate(0.000000, 1.987556)">
                <g id="user备份" fill="#FFFFFF" fill-rule="nonzero">
                    <path d="M9.98928427,0.000423387097 C10.1320262,0.00129032258 10.2845766,0.015171371 10.4370363,0.0463205645 C10.5750806,0.0745262097 10.7137601,0.116804435 10.8462097,0.176260081 C11.1214516,0.299828629 11.4175806,0.490201613 11.6576008,0.7828125 C11.8483266,1.0153125 12.0023589,1.31008065 12.0806452,1.68355847 C12.1362298,1.94867944 12.1539718,2.24751008 12.1286694,2.53993952 C12.1046774,2.81748992 12.041875,3.09267137 11.9358871,3.33265121 C11.8781149,3.4634375 11.7981653,3.6159879 11.6875806,3.78675403 C11.5990524,3.92342742 11.4917137,4.07029234 11.3616028,4.22469758 C11.3385988,4.2653629 11.2589819,4.43029234 11.4189617,4.52580645 C11.6028528,4.63563508 12.0499093,4.90523185 12.465504,5.15935484 C12.7377621,5.32582661 13.0081452,5.49287298 13.2020867,5.61641129 C13.3433266,5.70639113 13.5130141,5.81967742 13.6549597,5.96491935 C13.8131653,6.12677419 13.9343145,6.32450605 13.9491431,6.56799395 C13.9535081,6.63953629 13.955504,6.72397177 13.9558845,6.81224798 C13.9561572,6.90494938 13.9545507,6.99764729 13.9510282,7.09028226 C13.9435685,7.28488911 13.903246,7.45527218 13.8041633,7.58677419 C13.6956452,7.73082661 13.5319355,7.81681452 13.2885081,7.8221875 L13.2844254,7.8221875 C12.6014905,7.81971054 11.8462835,7.81811821 11.0154137,7.81741051 L10.129784,7.81642339 L9.151784,7.22242339 L9.18091204,7.18905265 C9.28051187,7.06651741 9.38659295,6.91872535 9.48181926,6.7717112 C9.62251272,6.55445074 9.73586382,6.34496547 9.8243982,6.14453883 C9.97231714,5.80961794 10.0646721,5.42373699 10.099572,5.01999785 C10.1344629,4.61675128 10.1108123,4.20131852 10.032124,3.82600063 C9.92601589,3.31979413 9.71612438,2.88496752 9.41763289,2.52109819 C9.10221246,2.13656611 8.70372718,1.84983269 8.25133537,1.64673355 C8.14558845,1.59926454 8.03578291,1.55851078 7.92277936,1.52433191 L7.88304435,1.68355847 C7.96135081,1.31008065 8.11535282,1.01530242 8.30607863,0.7828125 C8.54612903,0.490201613 8.84225806,0.299828629 9.11748992,0.176260081 C9.24993952,0.116804435 9.38861895,0.0745262097 9.52666331,0.0463205645 C9.67910282,0.015171371 9.83166331,0.00129032258 9.97441532,0.000423387097 L9.98928427,0.000423387097 Z M3.98928427,0.000423387097 C4.13202621,0.00129032258 4.28457661,0.015171371 4.43703629,0.0463205645 C4.57508065,0.0745262097 4.71376008,0.116804435 4.84620968,0.176260081 C5.12145161,0.299828629 5.41758065,0.490201613 5.65760081,0.7828125 C5.82251014,0.983841506 5.95998723,1.23142242 6.04478825,1.53618319 C5.9414576,1.56704661 5.84343793,1.604191 5.74868168,1.64672638 C5.29629299,1.84983155 4.8978089,2.13655889 4.5823501,2.52108931 C4.28389232,2.88490176 4.07401081,3.3197417 3.9678652,3.8259967 C3.88918875,4.20139411 3.86553137,4.61681926 3.9004192,5.02003073 C3.93533567,5.42379187 4.02768658,5.80965578 4.17559824,6.14452834 C4.2640648,6.34487138 4.37744372,6.55440163 4.51816697,6.77168828 L4.65159384,6.96810731 L4.79816656,7.16527979 L4.846,7.224 L3.871784,7.81642339 L2.94825766,7.81741051 C2.11739076,7.81811821 1.36218894,7.81971054 0.679254032,7.8221875 L0.675181452,7.8221875 C0.431754032,7.81681452 0.268044355,7.73082661 0.15953629,7.58677419 C0.0604637097,7.45527218 0.0201209677,7.28488911 0.0126612903,7.09028226 C0.00914204243,6.9976405 0.00753887716,6.90493587 0.00781426332,6.81222782 C0.00817540322,6.72397177 0.0102016129,6.63954637 0.014546371,6.56799395 C0.0293850806,6.32450605 0.150534274,6.12679435 0.308739919,5.96491935 C0.450695565,5.81967742 0.620362903,5.70638105 0.761612903,5.61640121 C0.955534274,5.49288306 1.22589718,5.32585685 1.498125,5.15938508 C1.91373992,4.90525202 2.36082661,4.63564516 2.5447379,4.52581653 C2.70470766,4.43028226 2.62509073,4.2653629 2.60209677,4.22470766 C2.47199597,4.07029234 2.36464718,3.92342742 2.27611895,3.78675403 C2.16552419,3.6159879 2.08556452,3.4634375 2.0278125,3.33265121 C1.92181452,3.09267137 1.85902218,2.81748992 1.83502016,2.53993952 C1.80971774,2.24751008 1.82747984,1.94867944 1.88304435,1.68355847 C1.96135081,1.31008065 2.11535282,1.01530242 2.30607863,0.7828125 C2.54612903,0.490201613 2.84225806,0.299828629 3.11748992,0.176260081 C3.24993952,0.116804435 3.38861895,0.0745262097 3.52666331,0.0463205645 C3.67910282,0.015171371 3.83166331,0.00129032258 3.97441532,0.000423387097 L3.98928427,0.000423387097 Z" id="Combined-Shape"></path>
                </g>
                <g id="user备份-2" transform="translate(1.000000, 1.000000)"></g>
                <path d="M6.99307588,2.19040674 L7.00692501,2.19040674 C7.16982917,2.19139613 7.33485833,2.20782977 7.49263087,2.24006444 C7.6458901,2.27137883 7.79097372,2.31698592 7.9236999,2.37656573 C8.26947482,2.53179972 8.56776219,2.74643489 8.79910917,3.02847222 C9.01646672,3.29343705 9.16960569,3.61069094 9.24914395,3.99014147 C9.31158867,4.28798263 9.33076913,4.62489609 9.3025471,4.9510685 C9.27489701,5.27093826 9.20299595,5.57135786 9.09260321,5.82131121 C9.0212625,5.98281434 8.92809422,6.15499954 8.81034659,6.33682678 C8.70162014,6.50468299 8.57529392,6.67517416 8.43007923,6.8475034 C8.21635497,7.21139068 8.19846464,7.58597764 8.60307744,7.82754704 L9.91618371,8.62247015 C10.2970451,8.85534726 10.6146937,9.05222128 10.8366965,9.19363426 C11.06605,9.33974871 11.2115203,9.44765368 11.335316,9.57432417 C11.497002,9.73973972 11.581602,9.90285766 11.592258,10.0778303 L11.6000417,10.3626857 L11.5941789,10.6954417 C11.586914,10.8849671 11.5508865,11.0133189 11.4896421,11.094602 C11.4234982,11.1824048 11.3277394,11.2277074 11.1515022,11.2315973 L6.99998151,11.2249554 L2.84333262,11.2315026 C2.67260407,11.2276678 2.57657353,11.1825068 2.51039192,11.0946458 C2.44911271,11.0133081 2.41307314,10.8849341 2.40580482,10.6953193 L2.39996053,10.3618596 L2.4037401,10.1613658 C2.40483759,10.131491 2.40616905,10.1035436 2.40773473,10.0777588 C2.41839266,9.90287342 2.50298896,9.73977063 2.66468112,9.57432825 C2.7637476,9.47296837 2.87672887,9.38358228 3.03532167,9.27711906 L3.16331368,9.19361576 C3.31110574,9.09947967 3.5012878,8.9807626 3.72474285,8.84292207 L5.39696014,7.82753792 C5.801513,7.58593811 5.78362581,7.21142521 5.61221121,6.90834976 C5.42468697,6.67513828 5.29834175,6.5046225 5.18963059,6.33678989 C5.07186229,6.15494732 4.97868822,5.98275668 4.90740839,5.82133506 C4.79700385,5.57137874 4.72510594,5.27097233 4.69744289,4.95108702 C4.66922465,4.6249584 4.68841162,4.28803393 4.750847,3.99012927 C4.83041153,3.61065111 4.98354748,3.29337863 5.20085276,3.02848902 C5.43223763,2.74644102 5.73053902,2.53179967 6.07632214,2.37655631 C6.20902735,2.31698592 6.35411097,2.27137883 6.50737473,2.24006351 C6.66511983,2.20783019 6.83015567,2.19139616 6.99307588,2.19040674 Z" id="Path" fill="#FFFFFF" fill-rule="nonzero"></path>
            </g>
        </g>
    </g>
</svg>