<?xml version="1.0" encoding="UTF-8"?>
<svg width="12px" height="14px" viewBox="0 0 12 14" version="1.1" xmlns="http://www.w3.org/2000/svg" xmlns:xlink="http://www.w3.org/1999/xlink">
    <!-- Generator: Sketch 63.1 (92452) - https://sketch.com -->
    <title>icons/一级菜单/审批流程_n</title>
    <desc>Created with Sketch.</desc>
    <g id="基础平台" stroke="none" stroke-width="1" fill="none" fill-rule="evenodd">
        <g id="一级菜单s-copy" transform="translate(-26.000000, -534.000000)">
            <g id="一级菜单" transform="translate(0.000000, 73.000000)">
                <g id="icons" transform="translate(25.000000, 13.000000)">
                    <g id="icons/一级菜单/工单管理_n" transform="translate(0.000000, 448.000000)">
                        <g id="Group">
                            <rect id="Rectangle" fill="#FFFFFF" opacity="0" x="0" y="0" width="14" height="14"></rect>
                            <path d="M9.76923077,5.53846154 L4.23076923,5.53846154 C3.97586858,5.53846154 3.76923077,5.74509935 3.76923077,6 C3.76923077,6.25490065 3.97586858,6.46153846 4.23076923,6.46153846 L9.76923077,6.46153846 C10.0241314,6.46153846 10.2307692,6.25490065 10.2307692,6 C10.2307692,5.74509935 10.0241314,5.53846154 9.76923077,5.53846154 Z M9.76923077,8.30769231 L4.23076923,8.30769231 C3.97586858,8.30769231 3.76923077,8.51433012 3.76923077,8.76923077 C3.76923077,9.02413142 3.97586858,9.23076923 4.23076923,9.23076923 L9.76923077,9.23076923 C10.0241314,9.23076923 10.2307692,9.02413142 10.2307692,8.76923077 C10.2307692,8.51433012 10.0241314,8.30769231 9.76923077,8.30769231 Z M11.6153846,2.13162821e-13 L2.38461538,2.13162821e-13 C1.62123077,2.13162821e-13 1,0.621230769 1,1.38461538 L1,12.4615385 C1,13.2249231 1.62123077,13.8461538 2.38461538,13.8461538 L11.6153846,13.8461538 C12.3787692,13.8461538 13,13.2249231 13,12.4615385 L13,1.38461538 C13,0.621230769 12.3787692,2.13162821e-13 11.6153846,2.13162821e-13 Z M4.23076923,0.923076923 L9.76923077,0.923076923 L9.76923077,2.30769231 L4.23076923,2.30769231 L4.23076923,0.923076923 Z M12.0769231,12.4615385 C12.0769231,12.7164391 11.8702853,12.9230769 11.6153846,12.9230769 L2.38461538,12.9230769 C2.13030769,12.9230769 1.92307692,12.7163077 1.92307692,12.4615385 L1.92307692,1.38461538 C1.92307692,1.13030769 2.13030769,0.923076923 2.38461538,0.923076923 L3.30769231,0.923076923 L3.30769231,2.30769231 C3.30769231,2.81676923 3.72169231,3.23076923 4.23076923,3.23076923 L9.76923077,3.23076923 C10.2783077,3.23076923 10.6923077,2.81676923 10.6923077,2.30769231 L10.6923077,0.923076923 L11.6153846,0.923076923 C11.8701538,0.923076923 12.0769231,1.13030769 12.0769231,1.38461538 L12.0769231,12.4615385 Z" id="Shape" fill="#D3D6DC" fill-rule="nonzero"></path>
                        </g>
                    </g>
                </g>
            </g>
        </g>
    </g>
</svg>