<?xml version="1.0" encoding="UTF-8"?>
<svg width="14px" height="14px" viewBox="0 0 14 14" version="1.1" xmlns="http://www.w3.org/2000/svg" xmlns:xlink="http://www.w3.org/1999/xlink">
    <!-- Generator: Sketch 52.6 (67491) - http://www.bohemiancoding.com/sketch -->
    <title>委托合同</title>
    <desc>Created with Sketch.</desc>
    <g id="委托合同" stroke="none" stroke-width="1" fill="none" fill-rule="evenodd">
        <g id="费用信息">
            <rect id="Rectangle" fill="#000000" opacity="0" x="0" y="0" width="14" height="14"></rect>
            <path d="M2.33333334,0.777777779 L11.6666667,0.777777779 C12.5222222,0.777777779 13.2222222,1.47777778 13.2222222,2.33333334 L13.2222222,11.6666667 C13.2222222,12.5222222 12.5222222,13.2222222 11.6666667,13.2222222 L2.33333334,13.2222222 C1.47777778,13.2222222 0.777777779,12.5222222 0.777777779,11.6666667 L0.777777779,2.33333334 C0.777777779,1.47777778 1.47777778,0.777777779 2.33333334,0.777777779 Z M2.33333334,1.55555556 C1.86666668,1.55555556 1.55555556,1.86666668 1.55555556,2.33333334 L1.55555556,11.6666667 C1.55555556,12.1333333 1.86666668,12.4444444 2.33333334,12.4444444 L11.6666667,12.4444444 C12.1333333,12.4444444 12.4444444,12.1333333 12.4444444,11.6666667 L12.4444444,2.33333334 C12.4444444,1.86666668 12.1333333,1.55555556 11.6666667,1.55555556 L2.33333334,1.55555556 Z M6.76666666,6.37777778 C6.76666666,6.76666666 6.6111111,7.07777778 6.37777778,7.38888888 C6.14444444,7.62222222 5.75555556,7.77777777 5.36666666,7.85555556 L5.36666666,8.55555556 L4.82222222,8.55555556 L4.82222222,7.85555556 C4.04444444,7.77777778 3.57777778,7.31111112 3.42222222,6.53333334 L4.27777778,6.3 C4.35555556,6.76666666 4.66666666,7.07777778 5.13333334,7.07777778 C5.36666668,7.07777778 5.52222222,7 5.6,6.92222222 C5.67777778,6.84444444 5.75555556,6.68888888 5.75555556,6.53333334 C5.75555556,6.37777779 5.67777778,6.22222222 5.6,6.14444444 C5.52222222,6.06666666 5.28888888,5.98888888 4.9,5.83333334 C4.58888888,5.75555556 4.35555556,5.6 4.12222222,5.52222222 C3.96666666,5.44444444 3.8111111,5.28888888 3.65555556,5.05555556 C3.57777778,4.9 3.5,4.66666668 3.5,4.35555556 C3.5,4.04444444 3.57777778,3.73333334 3.81111112,3.42222222 C4.04444446,3.18888888 4.35555556,2.95555556 4.74444444,2.95555556 L4.74444444,2.41111112 L5.28888888,2.41111112 L5.28888888,2.95555556 C5.9111111,3.03333334 6.37777777,3.42222222 6.53333334,4.04444444 L5.75555556,4.35555556 C5.6,3.8888889 5.36666668,3.65555556 5.05555556,3.65555556 C4.9,3.65555556 4.74444444,3.73333334 4.66666666,3.81111112 C4.58888888,3.8888889 4.5111111,4.04444446 4.51111112,4.2 C4.51111113,4.35555554 4.5888889,4.43333334 4.66666666,4.51111112 C4.74444444,4.5888889 4.97777778,4.66666668 5.28888888,4.82222222 C5.59999999,4.97777777 5.9111111,5.05555556 6.06666666,5.21111112 C6.22222222,5.2888889 6.37777778,5.44444446 6.53333334,5.67777778 C6.6888889,5.91111112 6.76666668,6.14444444 6.76666666,6.37777778 Z M8.16666666,3.11111112 L10.5,3.11111112 C10.7333333,3.11111112 10.8888889,3.26666668 10.8888889,3.5 C10.8888889,3.73333332 10.7333333,3.88888888 10.5,3.88888888 L8.16666666,3.88888888 C7.93333332,3.88888888 7.77777778,3.73333332 7.77777778,3.5 C7.77777778,3.26666668 7.93333334,3.11111112 8.16666666,3.11111112 Z M8.16666666,5.44444444 L10.5,5.44444444 C10.7333333,5.44444444 10.8888889,5.6 10.8888889,5.83333334 C10.8888889,6.06666668 10.7333333,6.22222222 10.5,6.22222222 L8.16666666,6.22222222 C7.93333332,6.22222222 7.77777778,6.06666666 7.77777778,5.83333334 C7.77777778,5.60000001 7.93333334,5.44444446 8.16666666,5.44444444 Z M8.16666666,7.77777778 L10.5,7.77777778 C10.7333333,7.77777778 10.8888889,7.93333334 10.8888889,8.16666666 C10.8888889,8.39999999 10.7333333,8.55555554 10.5,8.55555556 L8.16666666,8.55555556 C7.93333332,8.55555556 7.77777778,8.4 7.77777778,8.16666666 C7.77777778,7.93333332 7.93333334,7.77777778 8.16666666,7.77777778 Z M3.5,10.1111111 L10.5,10.1111111 C10.7333333,10.1111111 10.8888889,10.2666667 10.8888889,10.5 C10.8888889,10.7333333 10.7333333,10.8888889 10.5,10.8888889 L3.5,10.8888889 C3.26666666,10.8888889 3.11111112,10.7333333 3.11111112,10.5 C3.11111112,10.2666667 3.26666668,10.1111111 3.5,10.1111111 Z" id="Shape" fill="#FFFFFF" fill-rule="nonzero"></path>
        </g>
    </g>
</svg>