<?xml version="1.0" encoding="UTF-8"?>
<svg width="14px" height="14px" viewBox="0 0 14 14" version="1.1" xmlns="http://www.w3.org/2000/svg" xmlns:xlink="http://www.w3.org/1999/xlink">
    <!-- Generator: Sketch 63.1 (92452) - https://sketch.com -->
    <title>icons/一级菜单/合同设置_n</title>
    <desc>Created with Sketch.</desc>
    <g id="基础平台" stroke="none" stroke-width="1" fill="none" fill-rule="evenodd">
        <g id="一级菜单s-copy" transform="translate(-25.000000, -254.000000)">
            <g id="一级菜单" transform="translate(0.000000, 73.000000)">
                <g id="icons" transform="translate(25.000000, 13.000000)">
                    <g id="icons/一级菜单/合同管理_n" transform="translate(0.000000, 168.000000)">
                        <g id="Group">
                            <rect id="Rectangle" fill="#FFFFFF" opacity="0" x="0" y="0" width="14" height="14"></rect>
                            <g id="合同订单" fill="#D3D6DC" fill-rule="nonzero">
                                <path d="M11,0 C12.1045695,0 13,0.8954305 13,2 L13,2 L13,6.023 C12.689,5.788 12.36,5.58 12,5.422 L12,5.422 L12,2 C12,1.44771525 11.5522847,1 11,1 L11,1 L2,1 C1.44771525,1 1,1.44771525 1,2 L1,2 L1,12 C1,12.5522847 1.44771525,13 2,13 L2,13 L6.022,13 C6.30818882,13.3790391 6.64653825,13.7157052 7.027,14 L7.027,14 L2,14 C0.8954305,14 0,13.1045695 0,12 L0,12 L0,2 C0,0.8954305 0.8954305,0 2,0 L2,0 Z M10,6 C12.209139,6 14,7.790861 14,10 C14,12.209139 12.209139,14 10,14 C7.790861,14 6,12.209139 6,10 C6,7.790861 7.790861,6 10,6 Z M10,7.001 C8.34397418,7.001 7.0015,8.34347418 7.0015,9.9995 C7.0015,11.6555258 8.34397418,12.998 10,12.998 C11.6560258,12.998 12.9985,11.6555258 12.9985,9.9995 C12.9985,8.34347418 11.6560258,7.001 10,7.001 Z M10,8 L10.659,9.257 L12,9.528 L11.066,10.575 L11.236,12 L10,11.391 L8.764,12 L8.934,10.575 L8,9.528 L9.341,9.257 L10,8 Z M4.5,8.5 C4.77614237,8.5 5,8.72385763 5,9 C5,9.27614237 4.77614237,9.5 4.5,9.5 L4.5,9.5 L3.5,9.5 C3.22385763,9.5 3,9.27614237 3,9 C3,8.72385763 3.22385763,8.5 3.5,8.5 L3.5,8.5 Z M6,6 C6.27614237,6 6.5,6.22385763 6.5,6.5 C6.5,6.77614237 6.27614237,7 6,7 L6,7 L3.5,7 C3.22385763,7 3,6.77614237 3,6.5 C3,6.22385763 3.22385763,6 3.5,6 L3.5,6 Z M9.5,3.5 C9.77614237,3.5 10,3.72385763 10,4 C10,4.27614237 9.77614237,4.5 9.5,4.5 L9.5,4.5 L3.5,4.5 C3.22385763,4.5 3,4.27614237 3,4 C3,3.72385763 3.22385763,3.5 3.5,3.5 L3.5,3.5 Z" id="Combined-Shape"></path>
                            </g>
                        </g>
                    </g>
                </g>
            </g>
        </g>
    </g>
</svg>