<?xml version="1.0" encoding="UTF-8"?>
<svg width="14px" height="14px" viewBox="0 0 14 14" version="1.1" xmlns="http://www.w3.org/2000/svg" xmlns:xlink="http://www.w3.org/1999/xlink">
    <!-- Generator: Sketch 63.1 (92452) - https://sketch.com -->
    <title>icons/一级菜单/资产评估_n</title>
    <desc>Created with Sketch.</desc>
    <g id="icons/一级菜单/资产评估_n" stroke="none" stroke-width="1" fill="none" fill-rule="evenodd">
        <g id="图表">
            <rect id="Rectangle" fill="#000000" opacity="0" x="0" y="0" width="14" height="14"></rect>
            <path d="M12.7052063,11.9420406 L1.63615469,11.9420406 L0.873688416,11.9420406 L0.873688416,11.1781753 L0.873688416,3.16178674 C0.873688416,2.95053462 1.04436894,2.7798541 1.25562106,2.7798541 C1.46687319,2.7798541 1.63755371,2.95053462 1.63755371,3.16178674 L1.63755371,11.1781753 L12.7066054,11.1781753 C12.9178575,11.1781753 13.088538,11.3488558 13.088538,11.5601079 C13.087139,11.77136 12.9164585,11.9420406 12.7052063,11.9420406 L12.7052063,11.9420406 Z" id="Shape" fill="#D3D6DC" fill-rule="nonzero"></path>
            <path d="M11.5608074,10.41431 L10.7969421,10.41431 C10.3758369,10.41431 10.0330768,10.0729489 10.0330768,9.65044469 L10.0330768,5.07144999 C10.0330768,4.65034477 10.3744379,4.3075847 10.7969421,4.3075847 L11.5608074,4.3075847 C11.9819126,4.3075847 12.3246727,4.64894574 12.3246727,5.07144999 L12.3246727,9.65184371 C12.3246727,10.0729489 11.9819127,10.41431 11.5608074,10.41431 L11.5608074,10.41431 Z" id="Path" stroke="#D3D6DC" stroke-width="0.875" fill-rule="nonzero"></path>
            <path d="M7.74427901,10.41431 L6.98041371,10.41431 C6.55930849,10.41431 6.21654842,10.0729489 6.21654842,9.65044469 L6.21654842,2.78125313 C6.21654842,2.3601479 6.55790946,2.01738783 6.98041371,2.01738783 L7.74427901,2.01738783 C8.16538423,2.01738783 8.5081443,2.35874888 8.5081443,2.78125313 L8.5081443,9.65184371 C8.50674528,10.0729489 8.16538423,10.41431 7.74427901,10.41431 L7.74427901,10.41431 Z" id="Path" stroke="#D3D6DC" stroke-width="0.875" fill-rule="nonzero"></path>
            <path d="M3.92635156,10.41431 L3.16248626,10.41431 C2.74138104,10.41431 2.39862097,10.0729489 2.39862097,9.65044469 L2.39862097,6.59778156 C2.39862097,6.17667634 2.73998201,5.83391627 3.16248626,5.83391627 L3.92635156,5.83391627 C4.34745678,5.83391627 4.69021685,6.17527731 4.69021685,6.59778156 L4.69021685,9.65184371 C4.69021685,10.0729489 4.34885581,10.41431 3.92635156,10.41431 L3.92635156,10.41431 Z" id="Path" stroke="#D3D6DC" stroke-width="0.875" fill-rule="nonzero"></path>
        </g>
    </g>
</svg>