<?xml version="1.0" encoding="UTF-8"?>
<svg width="14px" height="14px" viewBox="0 0 14 14" version="1.1" xmlns="http://www.w3.org/2000/svg" xmlns:xlink="http://www.w3.org/1999/xlink">
    <!-- Generator: Sketch 63.1 (92452) - https://sketch.com -->
    <title>icons/一级菜单/能源计划_s</title>
    <desc>Created with Sketch.</desc>
    <g id="icons/一级菜单/能源计划_s" stroke="none" stroke-width="1" fill="none" fill-rule="evenodd">
        <g id="水电表抄表">
            <rect id="Rectangle" fill="#000000" opacity="0" x="0.875" y="0.875" width="12.25" height="12.25"></rect>
            <path d="M7.32173411,0.0969339355 C7.33802496,0.115076937 10.5517024,2.63986104 12.2210074,5.29712153 C12.7749639,6.18838642 13.1732447,7.10198532 13.1781793,8.00778353 C13.1763296,11.2508168 10.5471136,13.8722223 7.27257785,13.995254 L7.04311329,13.9997604 C3.66408034,13.9938119 0.910467277,11.3263037 0.908709758,8.00778353 C0.912900762,7.10198531 1.31124919,6.18838641 1.86530028,5.29712153 C2.42229859,4.40711394 3.14987087,3.54014336 3.87360364,2.77237797 C5.32125847,1.2388075 6.75488018,0.105451131 6.76470877,0.0969339355 C6.92811746,-0.0326087344 7.15814966,-0.0320003633 7.32173411,0.0969339355 Z M7.75734791,3.96204221 C7.66316869,3.94594096 7.56475844,3.98065872 7.50229892,4.05755693 L7.50229892,4.05755693 L4.02844106,8.33331659 L3.9955097,8.38519584 C3.96005303,8.45818966 3.95867297,8.54442165 3.99460206,8.619319 L3.99460206,8.619319 L4.02703937,8.67123773 C4.0773877,8.73441756 4.15442002,8.77235834 4.23761286,8.77235834 L4.23761286,8.77235834 L6.58079118,8.77235834 L6.11092526,11.1233103 L6.10642406,11.195785 C6.11338578,11.2910155 6.17070794,11.3776368 6.26047659,11.419655 C6.29693835,11.4368923 6.33621213,11.4453419 6.37475588,11.4453419 L6.37475588,11.4453419 L6.4334923,11.4388832 C6.49113997,11.4260472 6.54445109,11.3943231 6.58379248,11.3459068 L6.58379248,11.3459068 L10.0583398,7.06960639 L10.0912314,7.01800012 C10.126637,6.94530438 10.1279781,6.85911781 10.0920707,6.78414476 L10.0920707,6.78414476 L10.0599243,6.73218255 C10.0098053,6.66886774 9.93247444,6.63053761 9.84973585,6.63053761 L9.84973585,6.63053761 L7.50527318,6.63053761 L7.97588267,4.28005882 L7.98034677,4.2078858 C7.97332752,4.11288417 7.91595128,4.02587562 7.82656116,3.98378169 L7.82656116,3.98378169 Z" id="Combined-Shape" fill="#FFFFFF" fill-rule="nonzero"></path>
        </g>
    </g>
</svg>