<?xml version="1.0" encoding="UTF-8"?>
<svg width="14px" height="14px" viewBox="0 0 14 14" version="1.1" xmlns="http://www.w3.org/2000/svg" xmlns:xlink="http://www.w3.org/1999/xlink">
    <!-- Generator: Sketch 63.1 (92452) - https://sketch.com -->
    <title>icons/一级菜单/能源计划_n</title>
    <desc>Created with Sketch.</desc>
    <g id="icons/一级菜单/能源计划_n" stroke="none" stroke-width="1" fill="none" fill-rule="evenodd">
        <g id="水电表抄表">
            <rect id="Rectangle" fill="#000000" opacity="0" x="0.875" y="0.875" width="12.25" height="12.25"></rect>
            <path d="M0.908709758,8.00778353 C0.912900762,7.10198531 1.31124919,6.18838641 1.86530028,5.29712153 L1.86530028,5.29712153 C2.42229859,4.40711394 3.14987087,3.54014336 3.87360364,2.77237797 L3.87360364,2.77237797 C5.32125847,1.2388075 6.75488018,0.105451131 6.76470877,0.0969339355 L6.76470877,0.0969339355 C6.92811746,-0.0326087344 7.15814966,-0.0320003633 7.32173411,0.0969339355 L7.32173411,0.0969339355 C7.33802496,0.115076937 10.5517024,2.63986104 12.2210074,5.29712153 L12.2210074,5.29712153 C12.7749639,6.18838642 13.1732447,7.10198532 13.1781793,8.00778353 L13.1781793,8.00778353 C13.1762866,11.3262362 10.4234035,13.9938119 7.04309977,13.9997604 L7.04309977,13.9997604 L7.04309977,13.5513227 L7.04309977,13.1020738 C9.94434443,13.1013979 12.2748145,10.8122294 12.2802223,8.00778352 L12.2802223,8.00778352 C12.3014477,6.90829319 11.2859398,5.31230376 10.0793354,3.958541 L10.0793354,3.958541 C8.91173447,2.63030283 7.60326161,1.49531062 7.04357295,1.02879749 L7.04357295,1.02879749 C6.97631405,1.0849029 6.89814502,1.15094506 6.81013387,1.22613982 L6.81013387,1.22613982 C6.49030598,1.4985823 6.04660005,1.88973842 5.55375118,2.35827945 L5.55375118,2.35827945 C4.56927018,3.29492889 3.3897046,4.55060858 2.62637356,5.77303059 L2.62637356,5.77303059 C2.11405679,6.5867213 1.80234053,7.38298553 1.80653154,8.00778352 L1.80653154,8.00778352 C1.81142555,10.8122294 4.1424094,13.1013979 7.04311329,13.1020738 L7.04311329,13.1020738 L7.04311329,13.5513227 L7.04311329,13.9997604 C3.66408034,13.9938119 0.910467277,11.3263037 0.908709758,8.00778353 L0.908709758,8.00778353 Z M6.26047659,11.419655 C6.14826577,11.3671323 6.0867526,11.2449171 6.11092526,11.1233103 L6.11092526,11.1233103 L6.58079118,8.77235834 L4.23761286,8.77235834 C4.13362182,8.77235834 4.03925657,8.71307588 3.99460206,8.619319 L3.99460206,8.619319 C3.94969069,8.52569732 3.96307488,8.41436524 4.02844106,8.33331659 L4.02844106,8.33331659 L7.50229892,4.05755693 C7.58037332,3.96143416 7.71462073,3.93121836 7.82656116,3.98378169 L7.82656116,3.98378169 C7.93829881,4.0363991 8.00001476,4.15919561 7.97588267,4.28005882 L7.97588267,4.28005882 L7.50527318,6.63053761 L9.84973585,6.63053761 C9.95315908,6.63053761 10.0481327,6.69042845 10.0920707,6.78414476 L10.0920707,6.78414476 C10.136955,6.87786107 10.1236384,6.98909851 10.0583398,7.06960639 L10.0583398,7.06960639 L6.58379248,11.3459068 C6.5313373,11.4104619 6.45404703,11.4453419 6.37475588,11.4453419 L6.37475588,11.4453419 C6.33621213,11.4453419 6.29693835,11.4368922 6.26047659,11.419655 L6.26047659,11.419655 Z M4.80299318,8.23416549 L6.90974465,8.23416549 C6.99079332,8.23416549 7.066975,8.27046501 7.11780785,8.33272174 L7.11780785,8.33272174 C7.16924908,8.39497847 7.18966335,8.47663551 7.17384567,8.55646742 L7.17384567,8.55646742 L6.85219266,10.1613526 L9.28313877,7.16939292 L7.17709031,7.16939292 C7.09583886,7.16939292 7.01985996,7.1330258 6.96895951,7.07076907 L6.96895951,7.07076907 C6.91761293,7.00790397 6.89710402,6.92627398 6.9127189,6.84702339 L6.9127189,6.84702339 L7.2335337,5.24308457 L4.80299318,8.23416549 L4.80299318,8.23416549 Z" id="Shape" fill="#D3D6DC" fill-rule="nonzero"></path>
        </g>
    </g>
</svg>