<?xml version="1.0" encoding="UTF-8"?>
<svg width="14px" height="14px" viewBox="0 0 14 14" version="1.1" xmlns="http://www.w3.org/2000/svg" xmlns:xlink="http://www.w3.org/1999/xlink">
    <!-- Generator: Sketch 63.1 (92452) - https://sketch.com -->
    <title>icons/一级菜单/企业信息_s</title>
    <desc>Created with Sketch.</desc>
    <g id="基础平台" stroke="none" stroke-width="1" fill="none" fill-rule="evenodd">
        <g id="一级菜单x-copy" transform="translate(-25.000000, -86.000000)" fill="#FFFFFF">
            <g id="一级菜单" transform="translate(0.000000, 73.000000)">
                <g id="icons" transform="translate(25.000000, 13.000000)">
                    <g id="icons/一级菜单/项目楼宇_s">
                        <g>
                            <rect id="Rectangle" opacity="0" x="0" y="0" width="14" height="14"></rect>
                            <path d="M10.4666667,7.43387148 C12.1235209,7.43387148 13.4666667,8.77111785 13.4666667,10.4206948 C13.4666667,10.9484949 13.3291622,11.4443202 13.0878734,11.8745985 L13.6039439,12.4553229 C13.9453372,12.8398332 13.9090089,13.4270788 13.5228022,13.7669727 C13.1365956,14.1068665 12.5467593,14.0706978 12.205366,13.6861874 L11.7162791,13.1368689 C11.3358509,13.31064 10.9126222,13.4075182 10.4666667,13.4075182 C8.80981242,13.4075182 7.46666667,12.0702718 7.46666667,10.4206948 C7.46666667,8.77111785 8.80981242,7.43387148 10.4666667,7.43387148 Z M5.50666667,7.43387148 C6.07367901,7.43387148 6.53333333,7.8935258 6.53333333,8.46053815 L6.53333333,12.9118424 C6.53333333,13.4788547 6.07367901,13.938509 5.50666667,13.938509 L1.02666667,13.938509 C0.459654324,13.938509 -3.74650225e-16,13.4788547 0,12.9118424 L0,8.46053815 C-6.94389851e-17,7.8935258 0.459654324,7.43387148 1.02666667,7.43387148 L5.50666667,7.43387148 Z M5.50666667,0 C6.07367901,-1.04158478e-16 6.53333333,0.459654324 6.53333333,1.02666667 L6.53333333,5.47797088 C6.53333333,6.04498322 6.07367901,6.50463755 5.50666667,6.50463755 L1.02666667,6.50463755 C0.459654324,6.50463755 -3.74650225e-16,6.04498322 0,5.47797088 L0,1.02666667 C-6.94389851e-17,0.459654324 0.459654324,-1.17886127e-16 1.02666667,0 L5.50666667,0 Z M12.9733333,0 C13.5403457,-1.04158478e-16 14,0.459654324 14,1.02666667 L14,5.47797088 C14,6.04498322 13.5403457,6.50463755 12.9733333,6.50463755 L8.49333333,6.50463755 C7.92632099,6.50463755 7.46666667,6.04498322 7.46666667,5.47797088 L7.46666667,1.02666667 C7.46666667,0.459654324 7.92632099,-1.17886127e-16 8.49333333,0 L12.9733333,0 Z" id="icons/一级菜单/首页_s" fill-rule="nonzero"></path>
                        </g>
                    </g>
                </g>
            </g>
        </g>
    </g>
</svg>