<?xml version="1.0" encoding="UTF-8"?>
<svg width="14px" height="14px" viewBox="0 0 14 14" version="1.1" xmlns="http://www.w3.org/2000/svg" xmlns:xlink="http://www.w3.org/1999/xlink">
    <!-- Generator: Sketch 63.1 (92452) - https://sketch.com -->
    <title>icons/一级菜单/财务设置_n</title>
    <desc>Created with Sketch.</desc>
    <g id="基础平台" stroke="none" stroke-width="1" fill="none" fill-rule="evenodd">
        <g id="一级菜单s-copy" transform="translate(-25.000000, -366.000000)">
            <g id="一级菜单" transform="translate(0.000000, 73.000000)">
                <g id="icons" transform="translate(25.000000, 13.000000)">
                    <g id="icons/一级菜单/收支管理_n" transform="translate(0.000000, 280.000000)">
                        <g id="财务">
                            <rect id="Rectangle" fill="#FFFFFF" opacity="0" x="0" y="0" width="14" height="14"></rect>
                            <path d="M12.9230769,4.76983951 C12.9230769,4.54435437 12.8537055,4.36991947 12.7036744,4.21494323 C12.5535691,4.05989943 12.3846694,3.98820946 12.1663881,3.98820946 L1.83361194,3.98820946 C1.61533063,3.98820946 1.44643091,4.05989943 1.2963368,4.21493166 C1.14629453,4.36991947 1.07692308,4.54435437 1.07692308,4.76983951 L1.07692308,12.1059658 C1.07692308,12.2137857 1.09642743,12.3091511 1.13546668,12.3978282 C1.17840155,12.4954573 1.23595693,12.5795592 1.31022999,12.6533282 C1.38463395,12.7272452 1.46977783,12.7844124 1.56896698,12.826578 C1.66462827,12.8672743 1.76574801,12.8875805 1.87629702,12.8875805 L12.2090583,12.8875805 C12.3166652,12.8875805 12.4091934,12.8684683 12.4915145,12.8312389 C12.5785306,12.7919452 12.6526519,12.7386401 12.7172536,12.6691095 C12.7822454,12.5991491 12.8319357,12.5186803 12.8680624,12.4239775 C12.904517,12.3284061 12.9230769,12.2236738 12.9230769,12.1059658 L12.9230769,9.98648066 L10.230784,9.98648066 C9.7910603,9.98648066 9.42553908,9.88767299 9.14441506,9.66798442 C8.9027243,9.47906892 8.72015128,9.25846206 8.61059008,9.01746717 C8.48002946,8.74773914 8.40992737,8.44491809 8.39717208,8.09243114 C8.39717208,7.57157198 8.58031854,7.11459967 8.93566669,6.75446948 C9.28844941,6.39696066 9.73008856,6.21309424 10.230784,6.21309424 L12.9230769,6.21309424 L12.9230769,4.76983951 Z M14,12.1059658 C14,12.3608525 13.9569238,12.6039291 13.8700099,12.8317873 C13.7827669,13.0604866 13.6569591,13.2642208 13.4942609,13.4393569 C13.3312091,13.6148491 13.139568,13.7526697 12.9231555,13.8503947 C12.7017799,13.9505112 12.4621892,14 12.2090583,14 L1.87629702,14 C1.6262541,14 1.38575496,13.9517045 1.15899076,13.8552343 C0.935514159,13.7602338 0.736035354,13.6262999 0.56376524,13.4551572 C0.391180383,13.2837437 0.254232678,13.0836311 0.15505933,12.8581218 C0.0516361623,12.6231977 0,12.3707257 0,12.1059658 L0,4.76983951 C0,4.25048108 0.182028163,3.79277025 0.53484839,3.42832074 C0.887688878,3.06387174 1.33080463,2.87578999 1.83361194,2.87578999 L12.1663881,2.87578999 C12.6691954,2.87578999 13.1123111,3.06387174 13.4651628,3.42833231 C13.8179718,3.79277025 14,4.25048108 14,4.76983951 L14,7.32551372 L10.230784,7.32551372 C10.0103093,7.32551372 9.83995767,7.39643576 9.68986298,7.5485412 C9.5423325,7.69805706 9.47409515,7.86831738 9.47369546,8.07100435 C9.48036258,8.2496452 9.51464188,8.397722 9.57946136,8.53199239 C9.61597143,8.6121758 9.68484667,8.69539922 9.79419868,8.78087328 C9.86426925,8.83563098 10.0064349,8.87406119 10.230784,8.87406119 L14,8.87406119 L14,12.1059658 Z M10.2567038,1.44756727 C10.1602862,1.34562477 10.051923,1.26356156 9.95069142,1.21012813 C9.83219891,1.15860582 9.6713718,1.12466955 9.4685008,1.11322811 C9.31822587,1.10475584 9.11628964,1.16316896 8.85741237,1.30823524 C8.64199095,1.42435199 8.34055518,1.58976957 7.95203062,1.80507606 C7.71488017,1.93652866 7.4754166,2.06827738 7.23511738,2.19951379 L10.6370571,2.19951379 L10.2567038,1.44756727 Z M2.85570214,3.31193326 L4.8165472,2.2619223 C5.32500728,1.98964752 5.80614419,1.72653821 6.26620268,1.46918687 C6.66469694,1.25354912 7.05688298,1.03879366 7.44287034,0.824840691 C7.83475557,0.607671834 8.13948943,0.440444372 8.3514318,0.326286747 C8.76459348,0.0946295919 9.15563743,-0.0184857858 9.52720128,0.00246240861 C9.84608697,0.0204468055 10.1265101,0.0796191129 10.4003915,0.199988814 C10.6701518,0.339304854 10.9054085,0.52474012 11.1029774,0.754368459 L11.1777407,0.866283057 L12.4148117,3.31193326 L2.85570214,3.31193326 Z M10.1288067,8.09243114 C10.1288067,8.135308 10.1368947,8.15619691 10.1631029,8.18432429 C10.1846499,8.20742456 10.1963252,8.21251288 10.2307988,8.21251288 C10.2652606,8.21251288 10.2769521,8.20741718 10.2982967,8.18453675 C10.3247029,8.15619691 10.3327909,8.135308 10.3327909,8.09243114 C10.3327909,8.05239008 10.3268769,8.03735083 10.3056185,8.01538107 C10.2841185,7.99318573 10.2695606,7.9870773 10.2307988,7.9870773 C10.192037,7.9870773 10.1774791,7.99318573 10.1562073,8.01514529 C10.1347202,8.03735394 10.1288067,8.05239171 10.1288067,8.09243114 Z M9.05188364,8.09243114 C9.05188364,7.76011351 9.16930449,7.46151823 9.39470777,7.22854597 C9.62001782,6.99594897 9.90908516,6.87465782 10.2307988,6.87465782 C10.5525125,6.87465782 10.8415798,6.99594897 11.0670953,7.22875817 C11.292286,7.46148294 11.409714,7.76010368 11.409714,8.09243114 C11.409714,8.42191869 11.2944627,8.71957949 11.0739921,8.95619368 C10.8487107,9.19768671 10.5567606,9.32493236 10.2307988,9.32493236 C9.90482262,9.32493236 9.61286451,9.19769057 9.38738589,8.95595812 C9.1671349,8.71957949 9.05188364,8.42191869 9.05188364,8.09243114 Z" id="Shape" fill="#D3D6DC" fill-rule="nonzero"></path>
                        </g>
                    </g>
                </g>
            </g>
        </g>
    </g>
</svg>