<?xml version="1.0" encoding="UTF-8"?>
<svg width="14px" height="14px" viewBox="0 0 14 14" version="1.1" xmlns="http://www.w3.org/2000/svg" xmlns:xlink="http://www.w3.org/1999/xlink">
    <!-- Generator: Sketch 52.6 (67491) - http://www.bohemiancoding.com/sketch -->
    <title>icons/一级菜单/财务中心_n</title>
    <desc>Created with Sketch.</desc>
    <g id="0.1" stroke="none" stroke-width="1" fill="none" fill-rule="evenodd" opacity="0.800000012">
        <g id="一级菜单_n" transform="translate(-24.000000, -472.000000)" fill="#FFFFFF" fill-rule="nonzero">
            <g id="菜单" transform="translate(0.000000, 80.000000)">
                <g id="Group-17" transform="translate(0.000000, 384.000000)">
                    <g id="Group-27" transform="translate(24.000000, 5.000000)">
                        <g id="icons/一级菜单/财务中心_n" transform="translate(0.000000, 3.000000)">
                            <path d="M12.6,3.93866666 L1.4,3.93866666 C0.62680135,3.93866666 9.46895252e-17,4.56546801 0,5.33866666 L0,12.6 C1.46816623e-15,13.3731986 0.62680135,14 1.4,14 L12.6,14 C13.3731986,14 14,13.3731986 14,12.6 L14,5.33866666 C14,4.96736358 13.8525004,4.6112681 13.5899495,4.34871717 C13.3273986,4.08616624 12.9713031,3.93866666 12.6,3.93866666 Z M13.0666667,12.6 C13.0666667,12.8577329 12.8577329,13.0666667 12.6,13.0666667 L1.4,13.0666667 C1.14226712,13.0666667 0.933333338,12.8577329 0.933333338,12.6 L0.933333338,5.33866666 C0.933333338,5.08093378 1.14226712,4.872 1.4,4.872 L12.6,4.872 C12.8577329,4.872 13.0666667,5.08093378 13.0666667,5.33866666 L13.0666667,12.6 Z" id="Shape"></path>
                            <path d="M8.86666666,8.94133334 L7.46666666,8.94133334 L7.46666666,8.4 L8.55866666,8.4 C8.72539061,8.40000001 8.87944989,8.31105384 8.96281187,8.16666667 C9.04617384,8.0222795 9.04617384,7.84438716 8.96281187,7.69999999 C8.87944989,7.55561282 8.72539061,7.46666666 8.55866666,7.46666666 L8.10133334,7.46666666 L8.77333334,6.776 C8.95374636,6.59043232 8.94956768,6.29374635 8.76400001,6.11333333 C8.57843233,5.93292031 8.28174636,5.93709899 8.10133334,6.12266666 L7,7.252 L5.88933334,6.11333334 C5.70892032,5.92776567 5.41223436,5.923587 5.22666669,6.10400001 C5.04109902,6.28441302 5.03692033,6.58109898 5.21733334,6.76666666 L5.89866666,7.46666666 L5.44133334,7.46666666 C5.27460939,7.46666666 5.12055011,7.55561282 5.03718813,7.69999999 C4.95382616,7.84438716 4.95382616,8.0222795 5.03718813,8.16666667 C5.12055011,8.31105384 5.27460939,8.40000001 5.44133334,8.4 L6.53333334,8.4 L6.53333334,8.95066666 L5.13333334,8.95066666 C4.96660939,8.95066665 4.8125501,9.03961281 4.72918812,9.18399999 C4.64582615,9.32838716 4.64582615,9.5062795 4.72918812,9.65066667 C4.8125501,9.79505385 4.96660939,9.88400001 5.13333334,9.884 L6.53333334,9.884 L6.53333334,11.5173333 C6.53333335,11.7750662 6.74226713,11.984 7,11.984 C7.25773287,11.984 7.46666665,11.7750662 7.46666666,11.5173333 L7.46666666,9.87466666 L8.86666666,9.87466666 C9.12439954,9.87466666 9.33333332,9.66573288 9.33333332,9.408 C9.33333332,9.15026712 9.12439954,8.94133334 8.86666666,8.94133334 Z M1.428,2.95866666 L12.628,2.95866666 C12.8857329,2.95866665 13.0946666,2.74973288 13.0946666,2.492 C13.0946666,2.23426712 12.8857329,2.02533335 12.628,2.02533334 L1.428,2.02533334 C1.17026712,2.02533334 0.961333338,2.23426712 0.961333338,2.492 C0.961333338,2.74973288 1.17026712,2.95866666 1.428,2.95866666 Z M2.33333334,0.933333338 L11.6666667,0.933333338 C11.9243995,0.933333338 12.1333333,0.724399553 12.1333333,0.466666669 C12.1333333,0.208933784 11.9243995,1.57815876e-17 11.6666667,0 L2.33333334,0 C2.07560045,-1.57815876e-17 1.86666667,0.208933784 1.86666667,0.466666669 C1.86666667,0.724399553 2.07560045,0.933333338 2.33333334,0.933333338 Z" id="Shape"></path>
                        </g>
                    </g>
                </g>
            </g>
        </g>
    </g>
</svg>