<?xml version="1.0" encoding="UTF-8"?>
<svg width="14px" height="14px" viewBox="0 0 14 14" version="1.1" xmlns="http://www.w3.org/2000/svg" xmlns:xlink="http://www.w3.org/1999/xlink">
    <!-- Generator: Sketch 52.6 (67491) - http://www.bohemiancoding.com/sketch -->
    <title>icons/一级菜单/资产管理_n</title>
    <desc>Created with Sketch.</desc>
    <g id="0.1" stroke="none" stroke-width="1" fill="none" fill-rule="evenodd" opacity="0.800000012">
        <g id="一级菜单_n" transform="translate(-25.000000, -136.000000)" fill-rule="nonzero" stroke="#FFFFFF" stroke-width="1.1">
            <g id="菜单" transform="translate(0.000000, 80.000000)">
                <path d="M38.1544006,62.4421389 L32.8466428,56.9133281 C32.6200478,56.677533 32.3222317,56.55 31.9999338,56.55 C31.6776395,56.55 31.3798461,56.6775285 31.1534862,56.9131291 L25.845569,62.4421059 C25.5494273,62.7506839 25.5083629,62.9797305 25.5652968,63.1093439 C25.6266261,63.2483673 25.7228037,63.3293636 25.9721057,63.3293636 L27.3001276,63.3293636 L27.3001276,67.2500377 C27.3001276,67.9775351 27.808864,68.575 28.4279239,68.575 L29.6880185,68.575 C29.9362408,68.575 30.1374647,68.3737761 30.1374647,68.1255537 L30.1374647,65.5063952 C30.1374647,65.4644082 30.1370385,65.4332538 30.135656,65.359871 C30.1282521,64.9761314 30.1362595,64.8600226 30.2407947,64.6567364 C30.4061642,64.3351475 30.7123079,64.2048796 31.1070366,64.2048796 L32.8928311,64.2048796 C33.2875599,64.2048796 33.5937139,64.3351783 33.7590713,64.6567893 C33.8635888,64.8600701 33.8715995,64.9761957 33.8642078,65.3599471 C33.8628283,65.4332909 33.8624029,65.4644305 33.8624029,65.5063952 L33.8624029,68.1255537 C33.8624029,68.3737761 34.0636269,68.575 34.3118492,68.575 L35.5720841,68.575 C36.1910606,68.575 36.69974,67.9775489 36.69974,67.2500377 L36.69974,63.3293636 L38.0278322,63.3293636 C38.2770067,63.3293636 38.3732738,63.2483019 38.4344465,63.1097854 C38.4916259,62.9798607 38.4505241,62.750698 38.1543688,62.4421059 L38.1544006,62.4421389 Z" id="icons/一级菜单/资产管理_n"></path>
            </g>
        </g>
    </g>
</svg>