<?xml version="1.0" encoding="UTF-8"?>
<svg width="14px" height="13px" viewBox="0 0 14 13" version="1.1" xmlns="http://www.w3.org/2000/svg" xmlns:xlink="http://www.w3.org/1999/xlink">
    <!-- Generator: Sketch 63.1 (92452) - https://sketch.com -->
    <title>icons/一级菜单/房源设置_n</title>
    <desc>Created with Sketch.</desc>
    <g id="基础平台" stroke="none" stroke-width="1" fill="none" fill-rule="evenodd">
        <g id="一级菜单s-copy" transform="translate(-25.000000, -423.000000)">
            <g id="icons/一级菜单/房源管理_n" transform="translate(25.000000, 422.000000)">
                <g id="Group">
                    <rect id="Rectangle" fill="#FFFFFF" opacity="0" x="0" y="0" width="14" height="14"></rect>
                    <path d="M13.5,12.984375 L13,12.984375 L13,5.15625 C13,4.84114062 12.8786719,4.54628125 12.6583906,4.32598437 C12.4381094,4.1056875 12.1432344,3.984375 11.828125,3.984375 L10,3.984375 L10,2.171875 C10,1.85676562 9.87867188,1.56190625 9.65839062,1.34160937 C9.43809375,1.12132812 9.14323438,1 8.828125,1 L2.1875,1 C1.53270313,1 1,1.52570312 1,2.171875 L1,12.984375 L0.5,12.984375 C0.223859375,12.984375 0,13.2082344 0,13.484375 C0,13.7605156 0.223859375,13.984375 0.5,13.984375 L13.5,13.984375 C13.7761406,13.984375 14,13.7605156 14,13.484375 C14,13.2082344 13.7761406,12.984375 13.5,12.984375 Z M11.828125,4.96875 C11.9367656,4.96875 12.015625,5.04760937 12.015625,5.15625 L12.015625,12.984375 L10,12.984375 L10,4.96875 L11.828125,4.96875 Z M1.984375,2.171875 C1.984375,2.06848437 2.0755,1.984375 2.1875,1.984375 L8.828125,1.984375 C8.93676562,1.984375 9.015625,2.06323437 9.015625,2.171875 L9.015625,12.984375 L8,12.984375 L8,8.9765625 C8,8.16239062 7.33760937,7.5 6.5234375,7.5 L4.4921875,7.5 C3.67801563,7.5 3.015625,8.16239062 3.015625,8.9765625 L3.015625,12.984375 L1.984375,12.984375 L1.984375,2.171875 Z M7.015625,12.984375 L4,12.984375 L4,8.9765625 C4,8.70517187 4.22079687,8.484375 4.4921875,8.484375 L6.5234375,8.484375 C6.79482813,8.484375 7.015625,8.70517187 7.015625,8.9765625 L7.015625,12.984375 Z M3.484375,4.5 L7.484375,4.5 C7.76051563,4.5 7.984375,4.27614062 7.984375,4 C7.984375,3.72385937 7.76051563,3.5 7.484375,3.5 L3.484375,3.5 C3.20823437,3.5 2.984375,3.72385937 2.984375,4 C2.984375,4.27614062 3.20823437,4.5 3.484375,4.5 Z M3.484375,6.484375 L7.484375,6.484375 C7.76051563,6.484375 7.984375,6.26051562 7.984375,5.984375 C7.984375,5.70823437 7.76051563,5.484375 7.484375,5.484375 L3.484375,5.484375 C3.20823437,5.484375 2.984375,5.70823437 2.984375,5.984375 C2.984375,6.26051562 3.20823437,6.484375 3.484375,6.484375 Z" id="Shape" fill="#D3D6DC" fill-rule="nonzero"></path>
                </g>
            </g>
        </g>
    </g>
</svg>