<?xml version="1.0" encoding="UTF-8"?>
<svg width="14px" height="14px" viewBox="0 0 14 14" version="1.1" xmlns="http://www.w3.org/2000/svg" xmlns:xlink="http://www.w3.org/1999/xlink">
    <!-- Generator: Sketch 63.1 (92452) - https://sketch.com -->
    <title>icons/一级菜单/收支管理_n</title>
    <desc>Created with Sketch.</desc>
    <g id="icons/一级菜单/收支管理_n" stroke="none" stroke-width="1" fill="none" fill-rule="evenodd">
        <g id="编组-2">
            <rect id="矩形" fill="#D8D8D8" opacity="0" x="0" y="0" width="14" height="14"></rect>
            <g id="编组" transform="translate(0.000000, 0.365858)" fill="#D3D6DC" fill-rule="nonzero">
                <path d="M14,8.63414157 L14,12.6341416 C14,13.1864263 13.5522847,13.6341416 13,13.6341416 L1,13.6341416 C0.44771525,13.6341416 0,13.1864263 0,12.6341416 L0,3.63414157 C0,3.08185682 0.44771525,2.63414157 1,2.63414157 L13,2.63414157 C13.5522847,2.63414157 14,3.08185682 14,3.63414157 L14,6.63414157 L10,6.63414157 C9.48716416,6.63414157 9.06449284,7.02018176 9.00672773,7.51752045 L9,7.63414157 C9,8.14697741 9.38604019,8.56964873 9.88337887,8.62741384 L10,8.63414157 L14,8.63414157 Z M13,3.63414157 L1,3.63414157 L1,12.6341416 L13,12.6341416 L13,9.63414157 L10,9.63414157 C8.8954305,9.63414157 8,8.73871107 8,7.63414157 C8,6.52957207 8.8954305,5.63414157 10,5.63414157 L13,5.63414157 L13,3.63414157 Z" id="形状结合"></path>
                <path d="M10.6243557,0.500166975 L12.433,3.634 L11.279,3.634 L9.75833025,1.00016698 L5.196,3.634 L3.197,3.634 L9.25833025,0.134141571 C9.73662287,-0.142000803 10.3482133,0.0218743518 10.6243557,0.500166975 Z" id="形状结合"></path>
            </g>
        </g>
    </g>
</svg>