<?xml version="1.0" encoding="UTF-8"?>
<svg width="14px" height="12px" viewBox="0 0 14 12" version="1.1" xmlns="http://www.w3.org/2000/svg" xmlns:xlink="http://www.w3.org/1999/xlink">
    <!-- Generator: Sketch 63.1 (92452) - https://sketch.com -->
    <title>icons/一级菜单/招商设置_n copy</title>
    <desc>Created with Sketch.</desc>
    <g id="基础平台" stroke="none" stroke-width="1" fill="none" fill-rule="evenodd">
        <g id="一级菜单x-copy" transform="translate(-25.000000, -311.000000)">
            <g id="一级菜单" transform="translate(0.000000, 73.000000)">
                <g id="底">
                    <g id="icons/一级菜单/招商管理_s" transform="translate(25.000000, 237.000000)">
                        <g id="编组-2">
                            <rect id="矩形" fill="#D8D8D8" opacity="0" x="0" y="0" width="14" height="14"></rect>
                            <g id="编组" transform="translate(0.000000, 1.000000)">
                                <path d="M13,2 C13.5522847,2 14,2.44771525 14,3 L14,11 C14,11.5522847 13.5522847,12 13,12 L1,12 C0.44771525,12 6.76353751e-17,11.5522847 0,11 L0,3 C-6.76353751e-17,2.44771525 0.44771525,2 1,2 L13,2 Z M12.5384615,5 C12.4930732,5 12.4492152,5.0070977 12.4077815,5.02032445 L12.4077815,5.02032445 L7.048,5.92274108 L1.58923109,5.01938273 C1.54867874,5.0067611 1.50583744,5 1.46153846,5 C1.20663781,5 1,5.22385763 1,5.5 L1,5.5 L1.007436,5.58987563 C1.04651535,5.82312484 1.2349601,6 1.469,5.999 L1.469,5.999 L6.9803002,6.92402084 L7.12066984,6.9238307 L12.5343709,5.99998077 C12.5357331,5.99999358 12.5370966,6 12.5384615,6 C12.7933622,6 13,5.77614237 13,5.5 C13,5.22385763 12.7933622,5 12.5384615,5 Z" id="形状结合" fill="#FFFFFF"></path>
                                <path d="M9,0.5 L4.5,1 L4.5,2.5 L9.5,2.5 L9,0.5 Z" id="矩形" stroke="#FFFFFF"></path>
                            </g>
                        </g>
                    </g>
                </g>
            </g>
        </g>
    </g>
</svg>