<?xml version="1.0" encoding="UTF-8"?>
<svg width="14px" height="13px" viewBox="0 0 14 13" version="1.1" xmlns="http://www.w3.org/2000/svg" xmlns:xlink="http://www.w3.org/1999/xlink">
    <!-- Generator: Sketch 63.1 (92452) - https://sketch.com -->
    <title>icons/一级菜单/操作日志_s</title>
    <desc>Created with Sketch.</desc>
    <g id="基础平台" stroke="none" stroke-width="1" fill="none" fill-rule="evenodd">
        <g id="一级菜单x-copy" transform="translate(-25.000000, -647.000000)" stroke="#FFFFFF">
            <g id="一级菜单" transform="translate(0.000000, 73.000000)">
                <g id="icons" transform="translate(25.000000, 13.000000)">
                    <g id="icons/一级菜单/操作日志_s" transform="translate(0.000000, 560.000000)">
                        <path d="M7.99892069,2.49922532 L8.02684773,4.05043079 C8.07499751,4.49280902 8.25938702,4.84622638 8.5142708,5.09236479 C8.79130812,5.35989662 9.15517068,5.506476 9.55235722,5.49954309 C9.93483474,5.49286692 10.2813426,5.34356076 10.5421739,5.10330479 C10.8132516,4.85361058 10.9914437,4.50550825 11.0216489,4.11716371 L11.0216489,4.11716371 L10.9982777,2.49938197 L13,2.5 L13.5,13 L1,13.5 L0.5,3 L2.99892345,2.49937813 L3.02684773,4.05043079 C3.07499751,4.49280902 3.25938702,4.84622638 3.5142708,5.09236479 C3.79130812,5.35989662 4.15517068,5.506476 4.55235722,5.49954309 C4.93483474,5.49286692 5.28134264,5.34356076 5.54217386,5.10330479 C5.81325159,4.85361058 5.99144372,4.50550825 6.02164891,4.11716371 L6.02164891,4.11716371 L5.99827541,2.49922532 L7.99892069,2.49922532 Z M8.91780051,9.00680304 L2.91780051,10.006803 L3.08219949,10.993197 L9.08219949,9.99319696 L8.91780051,9.00680304 Z M10.9379826,6.00386106 L2.93798263,7.00386106 L3.06201737,7.99613894 L11.0620174,6.99613894 L10.9379826,6.00386106 Z" id="Combined-Shape" fill="#FFFFFF" fill-rule="evenodd"></path>
                        <line x1="4.5" y1="1" x2="4.5" y2="4" id="Line-Copy-2" stroke-linecap="round" transform="translate(4.500000, 2.500000) rotate(-1.000000) translate(-4.500000, -2.500000) "></line>
                        <line x1="9.5" y1="1" x2="9.5" y2="4" id="Line-Copy-3" stroke-linecap="round" transform="translate(9.500000, 2.500000) rotate(-1.000000) translate(-9.500000, -2.500000) "></line>
                    </g>
                </g>
            </g>
        </g>
    </g>
</svg>