<?xml version="1.0" encoding="UTF-8"?>
<svg width="14px" height="14px" viewBox="0 0 14 14" version="1.1" xmlns="http://www.w3.org/2000/svg" xmlns:xlink="http://www.w3.org/1999/xlink">
    <!-- Generator: Sketch 63.1 (92452) - https://sketch.com -->
    <title>icons/一级菜单/通行管理_s</title>
    <desc>Created with Sketch.</desc>
    <g id="Page-1" stroke="none" stroke-width="1" fill="none" fill-rule="evenodd">
        <g id="Artboard" transform="translate(-1161.000000, -1337.000000)" fill="#FFFFFF" fill-rule="nonzero">
            <g id="一级菜单" transform="translate(827.000000, 222.000000)">
                <g id="一级菜单x" transform="translate(309.000000, 189.000000)">
                    <g id="一级菜单" transform="translate(0.000000, 73.000000)">
                        <g id="icons" transform="translate(25.000000, 13.000000)">
                            <path d="M11,843 C11.5522847,843 12,843.447715 12,844 L12,853 C12,853.552285 11.5522847,854 11,854 L3,854 C2.44771525,854 2,853.552285 2,853 L2,844 C2,843.447715 2.44771525,843 3,843 L11,843 Z M9,851 L5,851 C4.72385763,851 4.5,851.223858 4.5,851.5 C4.5,851.74546 4.67687516,851.949608 4.91012437,851.991944 L5,852 L9,852 C9.27614237,852 9.5,851.776142 9.5,851.5 C9.5,851.223858 9.27614237,851 9,851 Z M7,844.975911 C5.61928813,844.975911 4.5,846.0952 4.5,847.475911 C4.5,848.856623 5.61928813,849.975911 7,849.975911 C8.38071187,849.975911 9.5,848.856623 9.5,847.475911 C9.5,846.0952 8.38071187,844.975911 7,844.975911 Z M13,840 C13.5522847,840 14,840.447715 14,841 L14,844 C14,844.552285 13.5522847,845 13,845 L13,843 C13,842.487164 12.6139598,842.064493 12.1166211,842.006728 L12,842 L2,842 C1.48716416,842 1.06449284,842.38604 1.00672773,842.883379 L1,843 L1,845 C0.44771525,845 6.76353751e-17,844.552285 0,844 L0,841 C-6.76353751e-17,840.447715 0.44771525,840 1,840 L13,840 Z" id="icons/一级菜单/通行管理_s"></path>
                        </g>
                    </g>
                </g>
            </g>
        </g>
    </g>
</svg>