<?xml version="1.0" encoding="UTF-8"?>
<svg width="14px" height="16px" viewBox="0 0 14 16" version="1.1" xmlns="http://www.w3.org/2000/svg" xmlns:xlink="http://www.w3.org/1999/xlink">
    <!-- Generator: Sketch 63.1 (92452) - https://sketch.com -->
    <title>cons/一级菜单/通行管理_n</title>
    <desc>Created with Sketch.</desc>
    <g id="Page-1" stroke="none" stroke-width="1" fill="none" fill-rule="evenodd">
        <g id="Artboard" transform="translate(-1087.000000, -1337.000000)" fill="#D3D6DC" fill-rule="nonzero">
            <g id="一级菜单" transform="translate(827.000000, 222.000000)">
                <g id="一级菜单s" transform="translate(235.000000, 189.000000)">
                    <g id="一级菜单" transform="translate(0.000000, 73.000000)">
                        <g id="icons" transform="translate(25.000000, 13.000000)">
                            <path d="M12.8333333,840.583333 C13.4776655,840.583333 14,841.105668 14,841.75 L14,841.75 L14,845.416667 C14,846.060999 13.4776655,846.583333 12.8333333,846.583333 L12.8333333,846.583333 L12.3333333,846.583333 L12.3333333,854.25 C12.3333333,854.894332 11.8109989,855.416667 11.1666667,855.416667 L11.1666667,855.416667 L2.83333333,855.416667 C2.18900112,855.416667 1.66666667,854.894332 1.66666667,854.25 L1.66666667,854.25 L1.66666667,846.583333 L1.16666667,846.583333 C0.522334467,846.583333 0,846.060999 0,845.416667 L0,845.416667 L0,841.75 C0,841.440581 0.122916314,841.143835 0.341708757,840.925042 C0.560501199,840.70625 0.857247432,840.583333 1.16666667,840.583333 L1.16666667,840.583333 Z M11.1666667,844.083333 L2.83333333,844.083333 C2.74128587,844.083333 2.66666667,844.157953 2.66666667,844.25 L2.66666667,844.25 L2.66666667,854.25 C2.66666667,854.342047 2.74128587,854.416667 2.83333333,854.416667 L2.83333333,854.416667 L11.1666667,854.416667 C11.2587141,854.416667 11.3333333,854.342047 11.3333333,854.25 L11.3333333,854.25 L11.3333333,844.25 C11.3333333,844.157953 11.2587141,844.083333 11.1666667,844.083333 L11.1666667,844.083333 Z M8.83333333,852.083333 C9.1094757,852.083333 9.33333333,852.307191 9.33333333,852.583333 C9.33333333,852.859476 9.1094757,853.083333 8.83333333,853.083333 L8.83333333,853.083333 L5.16666667,853.083333 C4.8905243,853.083333 4.66666667,852.859476 4.66666667,852.583333 C4.66666667,852.307191 4.8905243,852.083333 5.16666667,852.083333 L5.16666667,852.083333 Z M7,845.583333 C8.47275934,845.583333 9.66666667,846.777241 9.66666667,848.25 C9.66666667,849.722759 8.47275934,850.916667 7,850.916667 C5.52724066,850.916667 4.33333333,849.722759 4.33333333,848.25 C4.33333333,846.777241 5.52724066,845.583333 7,845.583333 Z M7,846.583333 C6.07952541,846.583333 5.33333333,847.329525 5.33333333,848.25 C5.33333333,849.170475 6.07952541,849.916667 7,849.916667 L7,849.916333 L7.14380638,849.910549 C7.94955701,849.841688 8.59168801,849.199557 8.66054901,848.393806 L8.66666667,848.25 C8.66666667,847.329525 7.92047459,846.583333 7,846.583333 Z M12.8333333,841.583333 L1.16666667,841.583333 C1.07536385,841.585107 1.00177337,841.658697 1,841.75 L1,841.75 L1,845.416667 C1.00177337,845.507969 1.07536386,845.58156 1.16666667,845.583333 L1.16666667,845.583333 L1.66666667,845.583333 L1.66666667,844.25 C1.66666667,843.605668 2.18900112,843.083333 2.83333333,843.083333 L2.83333333,843.083333 L11.1666667,843.083333 C11.8109989,843.083333 12.3333333,843.605668 12.3333333,844.25 L12.3333333,844.25 L12.3333333,845.583333 L12.8333333,845.583333 C12.9246361,845.58156 12.9982266,845.507969 13,845.416667 L13,845.416667 L13,841.75 C12.9982266,841.658697 12.9246361,841.585107 12.8333333,841.583333 L12.8333333,841.583333 Z" id="cons/一级菜单/通行管理_n"></path>
                        </g>
                    </g>
                </g>
            </g>
        </g>
    </g>
</svg>