<?xml version="1.0" encoding="UTF-8"?>
<svg width="14px" height="14px" viewBox="0 0 14 14" version="1.1" xmlns="http://www.w3.org/2000/svg" xmlns:xlink="http://www.w3.org/1999/xlink">
    <!-- Generator: Sketch 63.1 (92452) - https://sketch.com -->
    <title>icons/一级菜单/物业补贴_n</title>
    <desc>Created with Sketch.</desc>
    <g id="icons/一级菜单/物业补贴_n" stroke="none" stroke-width="1" fill="none" fill-rule="evenodd">
        <g id="编组-3">
            <rect id="矩形" fill="#D8D8D8" opacity="0" x="0" y="0" width="14" height="14"></rect>
            <path d="M13.8797322,9.74534246 C13.7231379,9.20066679 13.1648454,8.88066983 12.6201697,9.00322185 L8.50105988,9.83385226 C8.65084569,8.62875733 7.05766933,8.0023803 6.18618825,7.65514955 L6.17257135,7.64834111 C6.07725311,7.61429888 5.98874331,7.58025665 5.92065885,7.54621442 C5.02875243,7.17174989 3.69429702,6.71558401 2.40750073,7.0696232 C1.06623688,7.44408773 0.249223362,7.96833807 0.215181132,7.9887634 C-0.00268913895,8.12493232 -0.0639651527,8.41088705 0.0722037667,8.62875733 C0.140288226,8.73088402 0.242414916,8.80577692 0.364966943,8.8330107 C0.487518971,8.86024449 0.610070998,8.83981915 0.712197688,8.77173469 C0.719006134,8.76492625 1.46112674,8.30195192 2.65941323,7.96833807 C3.66706324,7.68919178 4.80407371,8.08408165 5.57342811,8.40407861 C5.65512946,8.43812084 5.75725615,8.47897151 5.85938284,8.51982219 C6.46533453,8.7581178 7.71808859,9.25513435 7.58191967,9.78619314 C7.55468589,9.90193672 7.47979298,9.99044652 7.37766629,10.0449141 C7.35724095,10.058531 7.33681561,10.0653394 7.30958183,10.0721479 L7.20745514,10.0925732 C7.15298757,10.0993817 7.09852001,10.0857648 7.05086088,10.0721479 L5.65512946,9.6023651 C5.53938588,9.56151442 5.41002541,9.57513132 5.30109027,9.62959888 C5.19215513,9.68406645 5.11045378,9.77938469 5.06960311,9.89512828 C5.02875243,10.0108719 5.04236932,10.1402323 5.09683689,10.2491675 C5.15130446,10.3581026 5.2466227,10.439804 5.36236628,10.4806546 L6.75809771,10.9504374 C7.00320176,11.0321388 7.2755396,11.0389472 7.5274521,10.9708627 L12.8176146,9.90193672 L12.8312315,9.90193672 C12.9061244,9.88151138 12.9810173,9.92917051 13.0014427,10.0040634 C13.021868,10.0721479 12.9878258,10.1402323 12.9333582,10.1674661 L8.75978082,12.3665942 C8.06531933,12.7342502 7.26192271,12.82276 6.50618521,12.6253151 C5.39640851,12.3325519 3.93259263,11.9648959 3.2177058,11.8423438 C1.76069837,11.6040482 0.473902079,11.753834 0.419434511,11.7606425 C0.16752201,11.7878763 -0.0163060309,12.0193634 0.017736199,12.2712759 C0.0449699828,12.5231884 0.276457146,12.7070165 0.528369647,12.6729742 C0.541986539,12.6729742 1.74027303,12.5299969 3.06791999,12.7546756 C3.74195614,12.8636107 5.18534669,13.2312668 6.27469804,13.5172215 C6.61512034,13.6057313 6.96235109,13.6533905 7.30958183,13.6533905 C7.96319264,13.6533905 8.61680346,13.4899877 9.19552136,13.1836077 L13.3690987,10.9844796 C13.8048393,10.7529925 14.0227096,10.2287421 13.8797322,9.74534246 L13.8797322,9.74534246 Z" id="路径" fill="#D3D6DC" fill-rule="nonzero"></path>
            <g id="编组" transform="translate(4.992630, 0.566987)" stroke="#D3D6DC">
                <path d="M2.57740054,2.9330127 L1.2500041,0.633981697 L2.5753679,2.93280415 L0.500050245,2.9330127 L2.57740054,2.9330127 Z M3.12450778,2.9330127 L5.5,2.9330127 L3.42741353,2.9328046 L4.7250304,0.672939693 L3.12450778,2.9330127 Z" id="Combined-Shape"></path>
            </g>
        </g>
    </g>
</svg>