<?xml version="1.0" encoding="UTF-8"?>
<svg width="14px" height="14px" viewBox="0 0 14 14" version="1.1" xmlns="http://www.w3.org/2000/svg" xmlns:xlink="http://www.w3.org/1999/xlink">
    <!-- Generator: Sketch 63.1 (92452) - https://sketch.com -->
    <title>icons/一级菜单/物业补贴_s</title>
    <desc>Created with Sketch.</desc>
    <g id="icons/一级菜单/物业补贴_s" stroke="none" stroke-width="1" fill="none" fill-rule="evenodd">
        <g id="编组-4">
            <rect id="矩形" fill="#D8D8D8" opacity="0" x="0.00350047788" y="0" width="14" height="14"></rect>
            <g id="编组-3">
                <g id="编组-2" transform="translate(4.003500, 0.000000)" stroke="#FFFFFF">
                    <g id="renminbi" transform="translate(0.992630, 0.000000)">
                        <path d="M3,4.499924 L3,3.5 L5.5,3.5 L2.59498438,3.4998659 L2.57536786,3.49979145 L0.500050245,3.5 L3,3.5 L3,4.499924 Z" id="Combined-Shape"></path>
                        <path d="" id="矩形备份-3" transform="translate(4.250000, 2.066987) scale(-1, 1) rotate(-300.000000) translate(-4.250000, -2.066987) "></path>
                    </g>
                </g>
                <path d="M6.97994091,11.0091705 C7.74161388,11.2376709 13.3227754,8.73512268 13.7286897,9.42381287 C13.8872657,9.69285918 13.8671632,10.0665283 13.5979796,10.2797865 C12.8429705,10.8779352 10.9549854,11.9448116 10.2411639,12.3848226 C9.85721449,12.6214952 9.1502345,13.3288687 8.1304969,13.5537671 C7.11251949,13.7782773 5.99974252,13.4532742 5.43131811,13.2858498 C4.57848043,13.0346538 3.44934499,12.9248065 2.49078195,12.8382463 C1.44420075,12.743738 0.598171176,12.6840086 0.467596547,12.6735992 C0.217428701,12.653656 0.027170774,12.517654 0.0123532583,12.2275013 C0.0024749146,12.0340661 0.000768419773,10.7433863 0.00723377386,8.35546187 C-0.0567249163,8.13223382 0.303442941,7.86571276 1.08773735,7.55589869 C2.35616439,7.05484125 2.95919794,6.72449045 3.92191038,6.96762593 C4.88462282,7.21076141 6.31235972,7.90335308 7.3800531,8.59038734 C8.22873757,9.1364948 8.74532482,9.35639779 8.51844989,9.80315661 C8.34975437,10.1353494 7.58138355,10.06773 6.88389121,9.91894019 C6.18639887,9.77015043 5.53061705,9.52345548 4.87665587,9.29616056 C4.22269469,9.06886564 4.08445006,9.98718534 4.50122862,10.1504696 C4.91800719,10.3137539 6.21826793,10.7806702 6.97994091,11.0091705 Z" id="路径-2" fill="#FFFFFF"></path>
            </g>
        </g>
    </g>
</svg>