<?xml version="1.0" encoding="UTF-8"?>
<svg width="16px" height="16px" viewBox="0 0 16 16" version="1.1" xmlns="http://www.w3.org/2000/svg" xmlns:xlink="http://www.w3.org/1999/xlink">
    <!-- Generator: Sketch 52.6 (67491) - http://www.bohemiancoding.com/sketch -->
    <title>icons/一级菜单/设置_s</title>
    <desc>Created with Sketch.</desc>
    <g id="0.1" stroke="none" stroke-width="1" fill="none" fill-rule="evenodd">
        <g id="一级菜单_n" transform="translate(-24.000000, -567.000000)" fill-rule="nonzero">
            <g id="菜单" transform="translate(0.000000, 80.000000)">
                <g id="Group-19" transform="translate(0.000000, 480.000000)">
                    <g id="Group-11" transform="translate(24.000000, 5.000000)">
                        <g id="icons/一级菜单/设置_s" transform="translate(0.000000, 2.000000)">
                            <rect id="Rectangle-path" fill="#000000" opacity="0" x="0" y="0" width="17" height="17"></rect>
                            <path d="M15.0861995,10.008973 L13.8330991,9.2854967 L13.8691785,8.93139739 C13.8884533,8.74222555 13.898182,8.5509401 13.898182,8.36097006 C13.898182,8.17100002 13.8884533,7.97971458 13.8691785,7.79054273 L13.833099,7.43644262 L14.141347,7.25847682 L15.0862119,6.71296258 C15.1815053,6.65793609 15.2145875,6.53445482 15.1595654,6.43917022 L13.4142999,3.41624841 C13.3593013,3.32098321 13.2357767,3.28788805 13.1405033,3.34288491 L11.8867162,4.06676721 L11.5978865,3.85746466 C11.2888827,3.63354282 10.9581209,3.44222721 10.6110935,3.28667759 L10.286057,3.14098501 L10.286057,1.69487666 C10.286057,1.58483703 10.1956658,1.49444444 10.0856248,1.49444444 L6.59508634,1.49444444 C6.4850545,1.49444444 6.39465413,1.58484482 6.39465413,1.69487666 L6.39465413,3.14097852 L6.06962589,3.28667384 C5.72260251,3.44222859 5.39183894,3.63354744 5.08284155,3.85746464 L4.79401429,4.06676541 L3.54020376,3.34288256 C3.44491329,3.2878649 3.32144375,3.32094926 3.26642223,3.41625874 L1.52115051,6.43916186 C1.46613354,6.53445896 1.49922225,6.65794475 1.59451675,6.71296023 L2.8476262,7.43644178 L2.8115501,7.79053818 C2.79227424,7.97973582 2.78254614,8.17100579 2.78254614,8.36097003 C2.78254614,8.55094587 2.79227542,8.74224677 2.81154918,8.93139284 L2.84763178,9.28549506 L1.59451634,10.0089801 C1.49922882,10.0639941 1.46613482,10.1874958 1.52114521,10.282786 L3.26639738,13.3056722 C3.32143306,13.400977 3.44491022,13.43406 3.54020781,13.3790382 L4.79398374,12.6551623 L5.08280995,12.8644478 C5.39181583,13.0883557 5.72262138,13.279696 6.06963425,13.435253 L6.39465413,13.5809511 L6.39465413,15.0270464 C6.39465413,15.1370853 6.48506158,15.2274956 6.59508634,15.2274956 L10.0856248,15.2274956 C10.1956573,15.2274956 10.286057,15.1370945 10.286057,15.0270464 L10.286057,13.5809301 L10.6111038,13.4352409 C10.9581079,13.2797102 11.288865,13.0883974 11.5978825,12.8644614 L11.8867132,12.6551541 L12.1956209,12.8335041 L13.1405536,13.3790672 C13.2357741,13.4340569 13.3592825,13.4009614 13.4143054,13.3056822 L15.1595662,10.2827854 C15.2145823,10.1874944 15.1814938,10.0639974 15.0861877,10.0089662 L15.0861995,10.008973 Z M8.34036405,4.89350409 C10.2528163,4.89350409 11.80783,6.44851151 11.80783,8.36097005 C11.80783,10.2734308 10.2528141,11.828453 8.34036405,11.828453 C6.427914,11.828453 4.87289809,10.2734308 4.87289809,8.36097005 C4.87289809,6.44852312 6.42791712,4.89350409 8.34036405,4.89350409 Z" id="Shape" stroke="#FFFFFF" stroke-width="1.1" opacity="0.800000012"></path>
                        </g>
                    </g>
                </g>
            </g>
        </g>
    </g>
</svg>