<?xml version="1.0" encoding="UTF-8"?>
<svg width="15px" height="15px" viewBox="0 0 15 15" version="1.1" xmlns="http://www.w3.org/2000/svg" xmlns:xlink="http://www.w3.org/1999/xlink">
    <!-- Generator: Sketch 52.6 (67491) - http://www.bohemiancoding.com/sketch -->
    <title>icons/一级菜单/设置_s</title>
    <desc>Created with Sketch.</desc>
    <g id="0.1" stroke="none" stroke-width="1" fill="none" fill-rule="evenodd">
        <g id="一级菜单_n" transform="translate(-225.000000, -568.000000)" fill-rule="nonzero">
            <g id="s" transform="translate(200.000000, 0.000000)">
                <g id="菜单" transform="translate(0.000000, 80.000000)">
                    <g id="Group-19" transform="translate(0.000000, 480.000000)">
                        <g id="Group-11" transform="translate(24.000000, 5.000000)">
                            <g id="icons/一级菜单/设置_s" transform="translate(0.000000, 2.000000)">
                                <rect id="Rectangle-path" fill="#000000" opacity="0" x="0" y="0" width="16" height="16"></rect>
                                <path d="M15.1417551,10.0645286 L13.8886547,9.34105225 L13.924734,8.98695295 C13.9440088,8.79778111 13.9537375,8.60649565 13.9537375,8.41652562 C13.9537375,8.22655557 13.9440088,8.03527014 13.924734,7.84609829 L13.8886546,7.49199818 L14.1969025,7.31403238 L15.1417674,6.76851813 C15.2370608,6.71349165 15.2701431,6.59001037 15.215121,6.49472578 L13.4698554,3.47180396 C13.4148569,3.37653877 13.2913322,3.34344361 13.1960588,3.39844046 L11.9422718,4.12232277 L11.6534421,3.91302021 C11.3444383,3.68909838 11.0136764,3.49778276 10.6666491,3.34223315 L10.3416125,3.19654056 L10.3416125,1.75043221 C10.3416125,1.64039258 10.2512214,1.55 10.1411803,1.55 L6.6506419,1.55 C6.54061006,1.55 6.45020968,1.64040037 6.45020968,1.75043221 L6.45020968,3.19653408 L6.12518144,3.3422294 C5.77815806,3.49778414 5.44739449,3.68910299 5.13839711,3.9130202 L4.84956985,4.12232097 L3.59575932,3.39843812 C3.50046885,3.34342045 3.3769993,3.37650481 3.32197779,3.4718143 L1.57670607,6.49471742 C1.52168909,6.59001452 1.5547778,6.71350031 1.6500723,6.76851578 L2.90318175,7.49199734 L2.86710565,7.84609374 C2.84782979,8.03529138 2.8381017,8.22656135 2.8381017,8.41652559 C2.8381017,8.60650142 2.84783097,8.79780232 2.86710473,8.9869484 L2.90318733,9.34105061 L1.6500719,10.0645356 C1.55478438,10.1195497 1.52169037,10.2430514 1.57670076,10.3383416 L3.32195293,13.3612278 C3.37698861,13.4565326 3.50046578,13.4896155 3.59576337,13.4345937 L4.8495393,12.7107178 L5.1383655,12.9200034 C5.44737138,13.1439113 5.77817693,13.3352516 6.1251898,13.4908085 L6.45020968,13.6365066 L6.45020968,15.082602 C6.45020968,15.1926409 6.54061714,15.2830512 6.6506419,15.2830512 L10.1411803,15.2830512 C10.2512129,15.2830512 10.3416125,15.1926501 10.3416125,15.082602 L10.3416125,13.6364856 L10.6666594,13.4907964 C11.0136635,13.3352658 11.3444206,13.1439529 11.6534381,12.9200169 L11.9422687,12.7107097 L12.2511765,12.8890596 L13.1961091,13.4346228 C13.2913297,13.4896124 13.4148381,13.456517 13.4698609,13.3612377 L15.2151218,10.338341 C15.2701379,10.24305 15.2370494,10.119553 15.1417432,10.0645217 L15.1417551,10.0645286 Z M8.3959196,4.94905965 C10.3083719,4.94905965 11.8633856,6.50406706 11.8633856,8.4165256 C11.8633856,10.3289864 10.3083697,11.8840085 8.3959196,11.8840085 C6.48346956,11.8840085 4.92845365,10.3289864 4.92845365,8.4165256 C4.92845365,6.50407868 6.48347268,4.94905965 8.3959196,4.94905965 Z" id="Shape" stroke="#FFFFFF" stroke-width="1.1" fill="#FFFFFF"></path>
                            </g>
                        </g>
                    </g>
                </g>
            </g>
        </g>
    </g>
</svg>