<?xml version="1.0" encoding="UTF-8"?>
<svg width="14px" height="14px" viewBox="0 0 14 14" version="1.1" xmlns="http://www.w3.org/2000/svg" xmlns:xlink="http://www.w3.org/1999/xlink">
    <!-- Generator: Sketch 63.1 (92452) - https://sketch.com -->
    <title>icons/一级菜单/统计报表_s</title>
    <desc>Created with Sketch.</desc>
    <g id="icons/一级菜单/统计报表_s" stroke="none" stroke-width="1" fill="none" fill-rule="evenodd">
        <g id="编组-2">
            <rect id="矩形" fill="#D8D8D8" opacity="0" x="0" y="0" width="14" height="14"></rect>
            <g id="编组" transform="translate(0.500000, 1.000000)" fill="#FFFFFF" stroke="#FFFFFF">
                <path d="M5.00008876,1.09060278 C3.803162,1.31037746 2.74189094,1.91781763 1.95096084,2.7776831 C1.05004411,3.75712133 0.5,5.06433351 0.5,6.5 C0.5,8.01878306 1.11560847,9.39378306 2.1109127,10.3890873 C3.10621694,11.3843915 4.48121694,12 6,12 C7.43562706,12 8.74280686,11.4499861 9.72223619,10.5491134 C10.5820927,9.75822299 11.1895427,8.69700303 11.4093576,7.50012702 L4.99999249,7.49998925 L5.00008876,1.09060278 Z" id="形状结合"></path>
                <path d="M7,5.5 L11.9775785,5.5 C11.8586914,4.18071551 11.273939,2.99576443 10.3890873,2.1109127 C9.50423557,1.22606098 8.31928449,0.641308602 7,0.522421508 L7,5.5 Z" id="椭圆形"></path>
            </g>
        </g>
    </g>
</svg>