<?xml version="1.0" encoding="UTF-8"?>
<svg width="14px" height="14px" viewBox="0 0 14 14" version="1.1" xmlns="http://www.w3.org/2000/svg" xmlns:xlink="http://www.w3.org/1999/xlink">
    <!-- Generator: Sketch 63.1 (92452) - https://sketch.com -->
    <title>icons/一级菜单/配套设施_n</title>
    <desc>Created with Sketch.</desc>
    <g id="icons/一级菜单/配套设施_n" stroke="none" stroke-width="1" fill="none" fill-rule="evenodd">
        <g id="Group">
            <rect id="Rectangle" fill="#FFFFFF" opacity="0" x="0" y="0" width="14" height="14"></rect>
            <g id="Group-31" transform="translate(0.000000, 1.000000)" fill-rule="nonzero">
                <path d="M3.1976499,3.90540015 C2.98985449,4.5703147 2.36928296,5.05271997 1.6359082,5.05271997 C0.732421143,5.05271997 0,4.32028345 0,3.41679639 C0,2.51330933 0.732421143,1.78088818 1.6359082,1.78088818 C2.3327688,1.78088818 2.92739282,2.21636646 3.16348901,2.83003198 L4.58435742,2.83003198 L5.80164478,0.837733887 L5.95936011,0.579258545 L8.22754468,0.579258545 C8.41708301,0.234112061 8.78422412,0 9.20590576,0 C9.82180151,0 10.3211719,0.499247314 10.3211719,1.11526611 C10.3211719,1.73128491 9.82180151,2.23053223 9.20590576,2.23053223 C8.78563916,2.23053223 8.41966699,1.99803516 8.22940576,1.65474976 L6.55933667,1.65474976 L5.84117358,2.83003198 L11.3044548,2.83003198 L11.3044548,1.99428223 L12.5364771,2.70553931 L13.7685146,3.41679639 L12.5367231,4.12817651 L11.3044548,4.83943359 L11.3044548,3.90540015 L7.23397192,3.90540015 L7.87584595,5.07249976 L8.49457178,5.07249976 L8.49457178,4.65526318 L10.309021,4.65526318 L10.309021,6.55209229 L8.4945564,6.55209229 L8.4945564,6.14772949 L7.24192383,6.14772949 L7.08817676,5.86845923 L6.008948,3.90540015 L3.1976499,3.90540015 Z" id="Shape" fill="#D3D6DC"></path>
                <polygon id="Path" stroke="#D3D6DC" stroke-linejoin="round" points="3 8 3 11 11 11 11 8"></polygon>
            </g>
        </g>
    </g>
</svg>