<?xml version="1.0" encoding="UTF-8"?>
<svg width="14px" height="14px" viewBox="0 0 14 14" version="1.1" xmlns="http://www.w3.org/2000/svg" xmlns:xlink="http://www.w3.org/1999/xlink">
    <!-- Generator: Sketch 63.1 (92452) - https://sketch.com -->
    <title>icons/一级菜单/通行管理_s</title>
    <desc>Created with Sketch.</desc>
    <g id="icons/一级菜单/通行管理_s" stroke="none" stroke-width="1" fill="none" fill-rule="evenodd">
        <rect fill="#9B9B9B" x="0" y="0" width="14" height="14"></rect>
        <g transform="translate(0.000000, 1.000000)" fill="#FFFFFF" id="Shape">
            <g>
                <path d="M13.9865236,5.35143748 C13.9883823,5.30044714 13.9805285,5.2495684 13.9633807,5.20151195 L12.2286719,0.452193116 C12.170387,0.29362352 12.0192783,0.18832967 11.8503363,0.188565276 L2.1373756,0.188565276 C1.96843363,0.188329664 1.8173249,0.293623515 1.75904003,0.452193116 L0.0243312078,5.20151195 C0.00684117832,5.24950206 -0.00135436424,5.3003827 0.000182122927,5.35143748 L0.000182122927,10.4207316 C0.000182122927,10.6430177 0.180380638,10.8232163 0.402666771,10.8232163 L1.03054281,10.8232163 C1.01749954,10.8895117 1.01076141,10.9568931 1.01041859,11.0244586 C1.02766804,11.571912 1.47645164,12.0067778 2.02417679,12.0067778 C2.57190195,12.0067778 3.02068554,11.571912 3.037935,11.0244586 C3.03774052,10.9568345 3.03066052,10.8894059 3.01680455,10.8232163 L10.9658763,10.8232163 C10.9520203,10.8894059 10.9449403,10.9568345 10.9447459,11.0244586 C10.9619953,11.571912 11.4107789,12.0067778 11.9585041,12.0067778 C12.5062292,12.0067778 12.9550128,11.571912 12.9722623,11.0244586 C12.9719195,10.9568931 12.9651813,10.8895117 12.9521381,10.8232163 L13.5840389,10.8232163 C13.8063251,10.8232163 13.9865236,10.6430177 13.9865236,10.4207316 L13.9865236,5.35646854 C13.9871429,5.35484871 13.9871429,5.35305732 13.9865236,5.35143748 Z M3.24118974,8.90537741 C2.83086802,8.90578397 2.46072284,8.65892539 2.30341738,8.27995432 C2.14611191,7.90098324 2.23263926,7.46456644 2.52263665,7.17428106 C2.81263404,6.88399569 3.24896475,6.79703522 3.62809177,6.95396446 C4.00721879,7.1108937 4.25444484,7.48079367 4.25444484,7.8911156 C4.25444484,8.45088393 3.80095781,8.90482158 3.24118974,8.90537741 L3.24118974,8.90537741 Z M10.9487707,8.9053769 C10.3886097,8.9053769 9.93450942,8.45127665 9.93450942,7.8911156 C9.93450942,7.33095455 10.3886097,6.87685429 10.9487707,6.87685429 C11.5089318,6.87685429 11.963032,7.33095455 11.963032,7.8911156 C11.963032,8.45127665 11.5089318,8.9053769 10.9487707,8.9053769 Z M0.978219815,4.93687829 L2.41509,0.993534968 L11.5716157,0.993534968 L13.0115045,4.93687829 L0.978219815,4.93687829 Z" fill-rule="nonzero"></path>
            </g>
        </g>
    </g>
</svg>