<?xml version="1.0" encoding="UTF-8"?>
<svg width="14px" height="14px" viewBox="0 0 14 14" version="1.1" xmlns="http://www.w3.org/2000/svg" xmlns:xlink="http://www.w3.org/1999/xlink">
    <!-- Generator: Sketch 63.1 (92452) - https://sketch.com -->
    <title>icons/一级菜单/用户管理_n</title>
    <desc>Created with Sketch.</desc>
    <g id="icons/一级菜单/用户管理_n" stroke="none" stroke-width="1" fill="none" fill-rule="evenodd">
        <g id="编组-2">
            <rect id="矩形" fill="#D8D8D8" opacity="0" x="0" y="0" width="14" height="14"></rect>
            <path d="M9.7781933,1.60040052 C9.94274559,1.60139992 10.1096627,1.61802156 10.2716085,1.65110888 C10.4332862,1.68414335 10.5890759,1.73311591 10.7353061,1.79875757 C11.08315,1.95492042 11.3903703,2.17598335 11.6341727,2.4732052 C11.8650981,2.75470962 12.027439,3.09102688 12.1092303,3.48122571 C12.1694331,3.76837371 12.1874735,4.08526233 12.1608497,4.39296349 C12.1341424,4.70192687 12.0633021,4.99791449 11.9492161,5.25623018 C11.8816239,5.40924731 11.7953232,5.56874045 11.6884778,5.73373226 L11.6143423,5.84419754 L11.5134286,5.981 L12.9740005,6.87788257 L12.9740005,6.87788257 C13.1848815,7.01222875 13.3279513,7.11835307 13.4656544,7.259254 C13.6932624,7.492112 13.832971,7.7614854 13.8520334,8.07449214 L13.858008,8.23350128 L13.8591063,8.32448197 C13.8593038,8.41622326 13.8577081,8.50775731 13.8542327,8.59915509 C13.8438924,8.86890933 13.7799686,9.0966446 13.6376412,9.28554088 C13.4815502,9.49274382 13.2594123,9.61688633 12.9823724,9.65284995 L12.8393289,9.66345982 L10.2802595,9.65940052 L8.997,8.879 L9.01025945,8.86040052 L10.2570381,8.85872821 L12.8304286,8.863 L12.8945586,8.85871539 C12.9308966,8.85333099 12.9554854,8.84358838 12.9742248,8.82921658 L12.9986843,8.80415312 C13.029242,8.76359711 13.0502044,8.68891647 13.0548151,8.56863437 L13.0590393,8.32738274 L13.0535155,8.12316683 C13.0473392,8.02175144 12.9965481,7.92382065 12.893535,7.81843148 C12.8302515,7.75367832 12.7570668,7.69493946 12.6556656,7.62580953 L12.0290065,7.23172394 L10.8982717,6.54597965 C10.5348927,6.32902845 10.5509492,5.99283783 10.7441787,5.66518017 C10.8485323,5.54134161 10.9391537,5.41903796 11.0170052,5.29884783 C11.1009047,5.16928924 11.1670226,5.04709618 11.2174211,4.93300256 C11.2939809,4.75965442 11.3443673,4.54912814 11.3638248,4.32403415 C11.3837798,4.09340713 11.3702094,3.85503783 11.3262502,3.64536656 C11.2710288,3.38192369 11.1654405,3.16317915 11.015649,2.98057923 C10.85592,2.78585213 10.6488977,2.63688745 10.4076707,2.52858975 C10.3169877,2.48788284 10.2172532,2.45653124 10.1114634,2.43491595 C10.0384076,2.41998984 9.96294599,2.40992496 9.88783144,2.40467136 L9.76438625,2.40038577 C9.6508265,2.40107542 9.53582577,2.41252702 9.42626219,2.43491503 C9.3204679,2.45653124 9.22073334,2.48788284 9.13007135,2.52858033 C8.93707986,2.61522611 8.76597935,2.72789661 8.62346189,2.86920582 L8.52203768,2.98059833 L8.4375388,3.09453461 C8.33206908,3.25242855 8.25565516,3.43458763 8.21146406,3.64535435 C8.19761493,3.71143418 8.18678176,3.78035958 8.17906307,3.85099057 L8.1425844,3.83419624 C7.97036015,3.75688604 7.78653248,3.69909974 7.5955059,3.66006861 C7.53225163,3.64714507 7.46833228,3.63634075 7.40406716,3.6276211 L7.42848226,3.48122178 C7.49666555,3.15602575 7.6207604,2.8682664 7.79385418,2.61849703 L7.90353502,2.47319862 L8.03062952,2.33088102 C8.2509029,2.1040931 8.51256012,1.92889126 8.8024309,1.7987504 C8.94864513,1.73311591 9.10443486,1.68414335 9.26610688,1.65111003 C9.37405769,1.62905157 9.48423134,1.61431102 9.59516631,1.60663661 L9.7781933,1.60040052 Z M4.20676473,1.60040052 C4.37131702,1.60139992 4.53823414,1.61802156 4.70017996,1.65110888 C4.86185762,1.68414335 5.01764735,1.73311591 5.16387756,1.79875757 C5.51172145,1.95492042 5.81894173,2.17598335 6.06274413,2.4732052 C6.29366954,2.75470962 6.45601043,3.09102688 6.53780169,3.48122571 L6.56225945,3.63240052 L6.40448943,3.66006976 C6.27714213,3.68608975 6.15299185,3.72044588 6.03335002,3.76336345 L5.85743254,3.83418907 C5.83360937,3.84488476 5.8099491,3.85583553 5.78645689,3.86704391 C5.78111732,3.79071523 5.76971313,3.71639425 5.75482162,3.64536656 C5.69960023,3.38192369 5.59401188,3.16317915 5.44422041,2.98057923 C5.28449147,2.78585213 5.07746909,2.63688745 4.8362421,2.52858975 C4.74555914,2.48788284 4.64582458,2.45653124 4.54003482,2.43491595 C4.46697898,2.41998984 4.39151742,2.40992496 4.31640287,2.40467136 L4.19295768,2.40038577 C4.07939793,2.40107542 3.96439719,2.41252702 3.85483362,2.43491503 C3.74903933,2.45653124 3.64930477,2.48788284 3.55864278,2.52858033 C3.36565129,2.61522611 3.19455078,2.72789661 3.05203331,2.86920582 L2.95060911,2.98059833 L2.86611023,3.09453461 C2.76064051,3.25242855 2.68422658,3.43458763 2.64003549,3.64535435 C2.59608239,3.8550725 2.58250728,4.09345238 2.60245994,4.32405267 C2.62192596,4.54915056 2.67231016,4.75966761 2.74888193,4.93302641 C2.79923566,5.0470584 2.86535492,5.1692503 2.94926341,5.29881095 C3.02711043,5.41899426 3.11774737,5.54131807 3.26440317,5.72602321 C3.41532599,5.99286746 3.43137962,6.32899039 3.06805734,6.54596721 L2.09979676,7.13210876 C1.8186094,7.30405943 1.58507381,7.44880044 1.42212106,7.55259313 C1.25921358,7.65636933 1.15715999,7.732075 1.07275345,7.81843556 C0.969737487,7.92384083 0.918947276,8.02176503 0.912771961,8.12309541 L0.907254337,8.3268283 L0.911463367,8.56851196 C0.916077813,8.68889289 0.93704819,8.76358998 0.967641112,8.80419689 C0.98916321,8.83276905 1.0172249,8.8506425 1.06800377,8.85867537 L1.12695421,8.86345982 L4.98425945,8.85940052 L5.001,8.88 L3.72125945,9.65840052 L1.11812747,9.66336242 C0.782746055,9.65595981 0.510736953,9.52727293 0.328661772,9.28555476 C0.18632818,9.0966311 0.122389559,8.86887989 0.112045214,8.59901766 L0.108249273,8.46185682 L0.10725945,8.32400335 C0.107642154,8.23047758 0.109882162,8.14642039 0.114248074,8.07451975 C0.133325187,7.76148403 0.273019132,7.49215226 0.500626623,7.25926574 C0.603932211,7.15356861 0.710293088,7.06740203 0.845940277,6.97427837 L1.10123624,6.80896259 L2.06284577,6.2179758 L2.452,5.982 L2.37873611,5.88230663 L2.27779979,5.73370933 C2.17093635,5.56870461 2.08461225,5.4091731 2.01707178,5.25621969 C1.90299289,4.99794465 1.83215569,4.70197011 1.80543625,4.39299638 C1.778814,4.08531323 1.79685952,3.76843268 1.85705369,3.48122178 C1.92523698,3.15602575 2.04933183,2.8682664 2.22242561,2.61849703 L2.33210645,2.47319862 L2.45920095,2.33088102 C2.67947432,2.1040931 2.94113155,1.92889126 3.23100232,1.7987504 C3.37721656,1.73311591 3.53300629,1.68414335 3.69467831,1.65111003 C3.80262912,1.62905157 3.91280276,1.61431102 4.02373774,1.60663661 L4.20676473,1.60040052 Z" id="Shape" fill="#D3D6DC" fill-rule="nonzero"></path>
            <path d="M5.30363163,5.28533 C5.16876972,5.48717957 5.07113468,5.71979674 5.01491173,5.98794864 C4.9595316,6.25218982 4.94248685,6.55149681 4.96754986,6.84115935 C4.99208386,7.12486141 5.05576932,7.39095431 5.15325887,7.61167102 C5.21655056,7.75500257 5.29939699,7.90810716 5.40423997,8.06999213 C5.50116934,8.21963555 5.61388362,8.37175498 5.78580713,8.58645011 C5.9493994,8.875695 5.96658666,9.23555328 5.57777277,9.46775375 L4.55367062,10.0868935 L3.79534898,10.5537021 L3.56847322,10.6966178 C3.36456396,10.8265132 3.23560243,10.9221798 3.12681965,11.0334809 C2.98752598,11.1760053 2.9158345,11.3142274 2.90688772,11.4610346 L2.89999824,11.7145372 L2.90519499,12.0128825 C2.91145024,12.1760686 2.94173744,12.2839525 2.99130276,12.349742 C3.03276339,12.4047841 3.08879521,12.438378 3.18019099,12.451223 L3.25569346,12.4569772 L5.48113317,12.4519148 L10.7396731,12.4569772 C10.8822702,12.4538344 10.9568693,12.4185423 11.0087312,12.3496983 C11.0582615,12.2839619 11.0885382,12.176098 11.0947899,12.0130049 L11.1000037,11.7150958 L11.0931062,11.4611061 C11.0841602,11.3142125 11.0124661,11.1759785 10.8731773,11.0334768 C10.7861783,10.9444575 10.6863025,10.8654757 10.5453724,10.7708955 L9.98562298,10.417668 L8.4222647,9.46776413 C8.03339212,9.23559226 8.05058243,8.87566235 8.2564832,8.52560502 C8.38609997,8.37178615 8.49879659,8.21968963 8.5957371,8.07002902 C8.70056388,7.90815431 8.78340618,7.75505264 8.84675263,7.61164716 C8.94423029,7.39093636 9.00791855,7.12483179 9.03244129,6.84114083 C9.05750753,6.55144101 9.04046862,6.25214487 8.98508038,5.98796084 C8.91482461,5.65279398 8.77983716,5.37314411 8.58827165,5.13962048 C8.38426346,4.89091213 8.12081472,4.70134539 7.81494894,4.56402841 C7.69827194,4.51165297 7.57049944,4.47148763 7.43536075,4.44387568 C7.34244248,4.42489146 7.24661185,4.41210482 7.15108332,4.40543269 L6.99401121,4.39999262 C6.8499334,4.40086761 6.70399748,4.41539969 6.56464474,4.44387476 C6.42950153,4.47148763 6.30172902,4.51165297 6.18507299,4.564019 C5.94037253,4.67388012 5.72281669,4.81717901 5.54111159,4.99744941 L5.41169081,5.13963959 L5.30363163,5.28533 Z M4.94341877,4.46403823 C5.20387808,4.19594074 5.51369825,3.98851258 5.85743254,3.83418907 C6.02964082,3.75688604 6.21346849,3.69909974 6.40448943,3.66006976 C6.53229968,3.63395326 6.66284211,3.61649093 6.79419206,3.60739798 L6.99158205,3.6 L7.01084825,3.6 C7.20591571,3.60119211 7.40376642,3.62089412 7.5955059,3.66006861 C7.78653248,3.69909974 7.97036015,3.75688604 8.1425844,3.83419624 C8.55506708,4.01937836 8.91871373,4.28104335 9.20679537,4.63224645 C9.47949482,4.96467458 9.67123481,5.36189717 9.76806044,5.82382 C9.83969228,6.16548075 9.86120129,6.5432962 9.82946622,6.91007017 C9.79769367,7.27763052 9.71355149,7.62919644 9.57854762,7.93487478 C9.4980075,8.11720377 9.39498238,8.30760552 9.26720977,8.50491344 C9.20961853,8.59382507 9.14766387,8.68303268 9.08649796,8.76483269 L8.997,8.879 L10.4075552,9.73797934 C10.5853453,9.84788511 10.7386015,9.94371573 10.8613568,10.0219093 C11.1132645,10.1823924 11.2832229,10.3084618 11.4452967,10.4742993 C11.7091804,10.7442698 11.869792,11.0539464 11.891624,11.4124314 C11.8968349,11.497839 11.8995082,11.598408 11.8999983,11.712195 C11.9003239,11.822874 11.898399,11.9332975 11.8942075,12.0435257 C11.8822262,12.3560909 11.8089881,12.6170094 11.647688,12.831086 C11.4681047,13.0694739 11.2111652,13.2102082 10.8872079,13.2473962 L10.7442961,13.2569772 L8.51779316,13.2519142 L3.24686672,13.2568798 C2.86380855,13.2484249 2.55752825,13.1035244 2.35232342,12.8310999 C2.19101743,12.6169936 2.11776199,12.3560556 2.10577683,12.0433882 L2.10119768,11.8779376 L2.10000335,11.7117123 C2.10046378,11.5991917 2.10315315,11.4982718 2.10836383,11.412459 C2.13021241,11.0539464 2.29080763,10.7443167 2.55469282,10.4743111 C2.71680984,10.308441 2.88689019,10.1822716 3.13867325,10.0218794 L3.77781026,9.62374388 L5.001,8.88 L4.98671108,8.86185326 C4.94040103,8.80216848 4.89611028,8.74255861 4.85380058,8.68305453 L4.73277635,8.50489052 C4.60497842,8.30756148 4.50192715,8.11711727 4.42144872,7.9348643 C4.28645206,7.62923135 4.20231359,7.27768096 4.17052617,6.91010306 C4.13879357,6.54335767 4.16030873,6.16555 4.23192993,5.82381607 C4.3126464,5.43884381 4.45924542,5.0988246 4.66366352,4.8038318 L4.79318815,4.63223988 L4.94341877,4.46403823 Z" id="路径" fill="#D3D6DC" fill-rule="nonzero"></path>
        </g>
    </g>
</svg>