<?xml version="1.0" encoding="UTF-8"?>
<svg width="14px" height="11px" viewBox="0 0 14 11" version="1.1" xmlns="http://www.w3.org/2000/svg" xmlns:xlink="http://www.w3.org/1999/xlink">
    <!-- Generator: Sketch 63.1 (92452) - https://sketch.com -->
    <title>icons/一级菜单/微信商户设置_n</title>
    <desc>Created with Sketch.</desc>
    <g id="基础平台" stroke="none" stroke-width="1" fill="none" fill-rule="evenodd">
        <g id="一级菜单s-copy" transform="translate(-25.000000, -703.000000)" fill="#D3D6DC" fill-rule="nonzero">
            <g id="一级菜单" transform="translate(0.000000, 73.000000)">
                <g id="icons" transform="translate(25.000000, 13.000000)">
                    <g id="icons/一级菜单/微信商户设置_n" transform="translate(0.000000, 616.000000)">
                        <path d="M0.365730496,9.41130922 L0.721781929,8.1524762 C0.251395453,7.42795412 0.000547303902,6.5805125 0,5.71407649 C0,3.11469979 2.24865492,1 5.01237456,1 C7.03495411,1 8.8369892,2.13487027 9.61995667,3.86092064 L9.65003091,3.86196821 C9.65970998,3.86196821 9.66938905,3.86057144 9.67906812,3.86057144 C9.74371046,3.86057144 9.8066244,3.86720607 9.87057539,3.8699996 C9.94524249,3.87314233 10.0202553,3.8738407 10.0938853,3.88047533 C10.1671697,3.88710996 10.2387257,3.89933163 10.310973,3.90910899 C10.3814919,3.91888632 10.4530479,3.92691772 10.5225298,3.93983778 C10.6023821,3.95485298 10.6798146,3.97545524 10.7579385,3.99431155 C10.81705,4.00862837 10.8768528,4.02050087 10.9349272,4.03726201 C11.026187,4.06345133 11.1146813,4.09557688 11.2035213,4.12700406 C11.2453487,4.14201927 11.2885589,4.15459013 11.3296949,4.17065292 C11.4333992,4.21115906 11.5336467,4.25760144 11.6332028,4.30544059 C11.6574005,4.31696389 11.6826352,4.32674123 11.7064872,4.33896292 C11.8229817,4.39727778 11.9356737,4.46117972 12.0456003,4.52927193 L12.0628843,4.53904928 C12.9934576,5.12115043 13.6720294,6.03253856 13.9081295,7.09652307 L13.9102036,7.10420527 C13.9364754,7.22362854 13.9554878,7.34549615 13.9703521,7.46806214 C13.9720805,7.48272816 13.975883,7.49704497 13.9776114,7.511711 C14.0718521,8.38589897 13.86677,9.2663167 13.3965216,10.0063304 L13.6879307,11.0364434 C13.739806,11.219425 13.6893334,11.416432 13.5560975,11.5510207 C13.4228616,11.6856094 13.2278348,11.7365945 13.0466925,11.6841925 L11.9747357,11.3744602 C11.1341712,11.8717816 10.156955,12.0812377 9.18889246,11.9715766 C9.15225027,11.9673863 9.11595377,11.9607516 9.07965726,11.9555138 C8.95168069,11.9392193 8.82446536,11.9173161 8.69837111,11.8898659 C8.66449438,11.8821837 8.63165468,11.8738031 8.59777793,11.8654225 C8.29357798,11.7911245 7.99773616,11.6854637 7.71490865,11.5501032 L7.70177277,11.5441669 C7.40758681,11.4011495 7.13022661,11.2252194 6.87490382,11.0196823 C6.86107658,11.0085082 6.84794069,10.9966357 6.83411346,10.9851124 C6.72902643,10.8981639 6.62877894,10.8070251 6.53302529,10.7109976 C6.50709921,10.6848083 6.48221018,10.6582698 6.45697547,10.6317313 C6.37178018,10.5419155 6.29080187,10.4481129 6.21430741,10.3506326 C6.20013449,10.3335223 6.18388749,10.3181579 6.17040592,10.3003491 C4.85266993,10.5954154 3.44885937,10.3691397 2.31226023,9.68193214 L1.00662307,10.0587091 C0.825509633,10.1116267 0.630237501,10.0608558 0.496921436,9.92618608 C0.363605372,9.7915164 0.313344724,9.59426158 0.365730496,9.41130922 L0.365730496,9.41130922 Z M12.4127135,9.60441176 C12.7725674,9.10786237 12.9630377,8.52925313 12.9630377,7.93004163 C12.9630377,6.26370288 11.4897452,4.908144 9.67906812,4.908144 C9.56222793,4.908144 9.44677048,4.91477863 9.33269575,4.92525436 C7.68414304,5.08518377 6.39509857,6.37160286 6.39509857,7.93004163 C6.39664059,8.45935717 6.54683704,8.97736546 6.82823687,9.42388009 C6.89841012,9.53666874 6.97687971,9.64387032 7.06088019,9.74618326 L7.07954696,9.76957903 C7.25773862,9.98170219 7.46248598,10.1695126 7.6886369,10.3282844 C7.79683506,10.4040588 7.90918138,10.473897 8.02602155,10.5371005 L8.03742902,10.543386 C8.27807881,10.6711611 8.53274459,10.7699598 8.79619884,10.8377539 C8.81763106,10.8433409 8.83940896,10.8482296 8.86153254,10.8534674 C8.9676566,10.8786092 9.07620045,10.8985131 9.18543565,10.9142266 C9.21654693,10.9184169 9.24696686,10.9236548 9.27807816,10.9271467 C10.0956572,11.0267281 10.9216634,10.8295777 11.6086595,10.3708857 C11.7350173,10.2857896 11.8920322,10.2611426 12.0379953,10.3034918 L12.4344914,10.4176773 L12.3325155,10.0576615 C12.2887137,9.90216477 12.3183,9.73495352 12.4127135,9.60441176 L12.4127135,9.60441176 Z M5.01237456,2.04757254 C2.8204113,2.04757254 1.037043,3.69226146 1.037043,5.71407649 C1.037043,6.44213941 1.2683036,7.14610818 1.70593576,7.74916077 C1.80030668,7.87975815 1.83003524,8.04736975 1.78613374,8.20275969 L1.6195155,8.79219385 L2.25038333,8.61026541 C2.39695207,8.56766413 2.55354557,8.59280588 2.67971913,8.67765924 C3.53216848,9.24998305 4.59790303,9.47625872 5.6266497,9.32959857 C5.45051951,8.88437235 5.35938486,8.40949922 5.35805556,7.93004163 C5.35805556,6.0611722 6.70448308,4.48667064 8.53037013,4.01107271 C7.85318106,2.81649081 6.51090172,2.04757254 5.01237456,2.04757254 Z M3.62965054,4.8410994 C3.81496219,4.84103699 3.98616427,4.74111298 4.07876662,4.57896773 C4.17136896,4.41682248 4.17130308,4.21708971 4.07859377,4.05500684 C3.98588447,3.89292397 3.8146165,3.79311523 3.62930486,3.79317758 C3.34283788,3.79327405 3.1106879,4.02793749 3.11078333,4.31731309 C3.11087882,4.60668868 3.34318357,4.84119579 3.62965054,4.8410994 M6.39509857,4.8410994 C6.58041022,4.84103699 6.7516123,4.74111298 6.84421465,4.57896773 C6.936817,4.41682248 6.93675111,4.21708971 6.84404181,4.05500684 C6.7513325,3.89292397 6.58006454,3.79311523 6.39475289,3.79317758 C6.10828592,3.79327405 5.87613594,4.02793749 5.87623137,4.31731309 C5.87632685,4.60668868 6.1086316,4.84119579 6.39509857,4.8410994 M8.2963441,6.58705359 C8.11103245,6.58711599 7.93983037,6.68704001 7.84722803,6.84918526 C7.75462568,7.01133051 7.75469157,7.21106327 7.84740087,7.37314614 C7.94011017,7.53522901 8.11137814,7.63503775 8.29668978,7.6349754 C8.58315676,7.63487894 8.81530675,7.4002155 8.81521132,7.1108399 C8.81511583,6.8214643 8.58281108,6.58695719 8.2963441,6.58705359 M11.0617921,6.58705359 C10.7753252,6.58715005 10.5431752,6.82181349 10.5432706,7.11118909 C10.5433661,7.40056469 10.7756708,7.6350718 11.0621378,7.6349754 C11.2474495,7.63491299 11.4186515,7.53498897 11.5112539,7.37284373 C11.6038562,7.21069848 11.6037903,7.01096572 11.511081,6.84888285 C11.4183717,6.68679998 11.2471038,6.58699124 11.0617921,6.58705359" id="Shape"></path>
                    </g>
                </g>
            </g>
        </g>
    </g>
</svg>