<?xml version="1.0" encoding="UTF-8"?>
<svg width="14px" height="12px" viewBox="0 0 14 12" version="1.1" xmlns="http://www.w3.org/2000/svg" xmlns:xlink="http://www.w3.org/1999/xlink">
    <!-- Generator: Sketch 63.1 (92452) - https://sketch.com -->
    <title>icons/一级菜单/微信商户设置_s</title>
    <desc>Created with Sketch.</desc>
    <g id="基础平台" stroke="none" stroke-width="1" fill="none" fill-rule="evenodd">
        <g id="一级菜单x-copy" transform="translate(-25.000000, -703.000000)">
            <g id="一级菜单" transform="translate(0.000000, 73.000000)">
                <g id="icons" transform="translate(25.000000, 13.000000)">
                    <g id="icons/一级菜单/微信商户设置_s" transform="translate(0.000000, 616.000000)">
                        <g id="微信">
                            <rect id="Rectangle" fill="#000000" fill-rule="nonzero" opacity="0" x="0" y="0" width="14" height="14"></rect>
                            <path d="M9.47049739,4.60588661 C9.62935259,4.60588661 9.78655579,4.61726021 9.94241639,4.634707 C9.51829061,2.6598628 7.407008,1.1925648 4.99691639,1.1925648 C2.3024148,1.1925648 0.0953918027,3.0288062 0.0953918027,5.36084361 C0.0953918027,6.7074308 0.829672197,7.8123038 2.056747,8.66989341 L1.5665132,10.1442698 L3.2800012,9.2851682 C3.89309059,9.40632559 4.385059,9.53128959 4.9968898,9.53128959 C5.1507078,9.53128959 5.3031692,9.5236092 5.45448261,9.5117582 C5.35875621,9.1842688 5.30318321,8.8410952 5.30318321,8.484714 C5.3032098,6.3434252 7.1421,4.60588661 9.47049739,4.60588661 Z M6.80046639,3.17742739 C7.21898239,3.17742739 7.55823739,3.51669779 7.55823739,3.93522359 C7.55823739,4.35374939 7.218981,4.69300579 6.80046639,4.69300579 C6.38192239,4.69300579 6.04266739,4.35373539 6.04266739,3.93522359 C6.04266739,3.51671179 6.38195039,3.17742739 6.80046639,3.17742739 Z M3.37104039,4.708284 C2.95252439,4.708284 2.61324139,4.36901361 2.61324139,3.9505018 C2.61324139,3.53199 2.95252579,3.19271961 3.37104039,3.19271961 C3.78958439,3.19271961 4.12885339,3.53199 4.12885339,3.9505018 C4.12885339,4.36899961 3.78958439,4.708284 3.37104039,4.708284 Z M13.9094914,8.4417788 C13.9094914,6.48218341 11.9486262,4.884831 9.746191,4.884831 C7.41403039,4.884831 5.5772948,6.48218339 5.5772948,8.4417788 C5.5772948,10.4047594 7.41403041,11.9986286 9.746191,11.9986286 C10.2342422,11.9986286 10.7266306,11.8754286 11.2168644,11.7525492 L12.5613656,12.4889394 L12.1926448,11.2640416 C13.176541,10.5259448 13.9094914,9.54719639 13.9094914,8.4417788 Z M8.4654192,7.8924412 C8.16738159,7.8924412 7.92579759,7.650811 7.92579759,7.35279859 C7.92579759,7.0547582 8.16739559,6.81318399 8.4654192,6.81318399 C8.7634428,6.81318399 9.0050408,7.05477218 9.0050408,7.35279859 C9.0050702,7.650825 8.7634442,7.8924412 8.4654192,7.8924412 Z M11.1599488,7.9230522 C10.8618832,7.9230522 10.6203132,7.681436 10.6203132,7.38343759 C10.6203132,7.0853832 10.8618972,6.84382299 11.1599488,6.84382299 C11.4579724,6.84382299 11.6995704,7.08539718 11.6995704,7.38343759 C11.6995858,7.681436 11.4579738,7.9230522 11.1599488,7.9230522 Z" id="Shape" fill="#FFFFFF" fill-rule="nonzero"></path>
                        </g>
                    </g>
                </g>
            </g>
        </g>
    </g>
</svg>