<?xml version="1.0" encoding="UTF-8"?>
<svg width="12px" height="14px" viewBox="0 0 12 14" version="1.1" xmlns="http://www.w3.org/2000/svg" xmlns:xlink="http://www.w3.org/1999/xlink">
    <!-- Generator: Sketch 63.1 (92452) - https://sketch.com -->
    <title>icons/一级菜单/工单设置_n copy</title>
    <desc>Created with Sketch.</desc>
    <g id="基础平台" stroke="none" stroke-width="1" fill="none" fill-rule="evenodd">
        <g id="一级菜单x-copy" transform="translate(-26.000000, -478.000000)" fill="#FFFFFF">
            <g id="一级菜单" transform="translate(0.000000, 73.000000)">
                <g id="底">
                    <g id="icons/一级菜单/工单管理_s" transform="translate(25.000000, 405.000000)">
                        <g id="编组">
                            <rect id="Rectangle" opacity="0" x="0" y="0" width="14" height="14"></rect>
                            <path d="M3.5,0 L3.5,1 C3.5,1.51283584 3.88604019,1.93550716 4.38337887,1.99327227 L4.5,2 L9.5,2 C10.0128358,2 10.4355072,1.61395981 10.4932723,1.11662113 L10.5,1 L10.5,0 L12,0 C12.5522847,-1.01453063e-16 13,0.44771525 13,1 L13,13 C13,13.5522847 12.5522847,14 12,14 L2,14 C1.44771525,14 1,13.5522847 1,13 L1,1 C1,0.44771525 1.44771525,1.01453063e-16 2,0 L3.5,0 Z M8.43072836,7.44423158 C7.97743486,7.89802948 7.88385596,8.55482501 8.10220672,9.10226375 L6.16426082,11.0418733 C5.94524639,11.2605868 5.94524639,11.6207439 6.16426082,11.8394575 C6.38327526,12.058171 6.74232619,12.058171 6.96134062,11.8394575 L8.89928651,9.89984795 C9.44615892,10.1342775 10.1025385,10.0249207 10.555832,9.57112277 C10.9467396,9.18018864 11.0874398,8.61703395 10.9467396,8.11674305 C10.8843537,7.86659759 9.88418778,9.44605004 9.22780816,8.77353857 C8.5561639,8.10168193 10.1343952,7.11616123 9.88418778,7.05329745 C9.38377299,6.91250878 8.82163594,7.05329745 8.43072836,7.44423158 Z M6.5,8 L3.5,8 C3.22385763,8 3,8.22385763 3,8.5 C3,8.74545989 3.17687516,8.94960837 3.41012437,8.99194433 L3.5,9 L6.5,9 C6.77614237,9 7,8.77614237 7,8.5 C7,8.22385763 6.77614237,8 6.5,8 Z M10.5,5 L3.5,5 C3.22385763,5 3,5.22385763 3,5.5 C3,5.74545989 3.17687516,5.94960837 3.41012437,5.99194433 L3.5,6 L10.5,6 C10.7761424,6 11,5.77614237 11,5.5 C11,5.22385763 10.7761424,5 10.5,5 Z" id="形状结合"></path>
                        </g>
                    </g>
                </g>
            </g>
        </g>
    </g>
</svg>